<svg width="48" height="48" fill="none" xmlns="http://www.w3.org/2000/svg"><g clip-path="url(#a)"><path d="M47.93 27.842c-1.486 8.742-7.208 16.052-15.7 20.062l-.204.096-16.258-.096C7.28 43.896 1.556 36.584.07 27.844a4.99 4.99 0 0 1 1.114-4.062 5.008 5.008 0 0 1 3.03-1.718A10.014 10.014 0 0 1 4 20c0-3.31 1.55-6.312 4.036-8.134.006.006.01.01 0 0-2.708-2.71-2.708-7.12 0-9.83A6.913 6.913 0 0 1 12.942.002c3.288 0 5.014 2.126 5.058 2.172.044-.046 1.73-2.172 5.038-2.172 1.782 0 3.566.676 4.926 2.034 1.57 1.57 2.282 3.738 1.994 5.828C31.73 6.732 34 4.42 34 0h2c0 3.284-1.078 5.622-2.422 7.26 4.58-1.024 9.058-1.244 9.378-1.258l1.098-.05L44 7.048c-.016.37-.44 8.468-3.354 14.952h2.338c1.48 0 2.876.65 3.834 1.782a4.985 4.985 0 0 1 1.112 4.06ZM27.694 11.44c-.5.414-1.012.8-1.424 1.096a7.867 7.867 0 0 0-1.836 8.138c.156.336.514.968.826 1.326h1.328l6.708-6.708 1.414 1.414-5.292 5.292h9.018C40.88 17.09 41.684 10.64 41.92 8.072c-2.84.222-10.312 1.014-14.222 3.366l-.004.002ZM9.45 10.452c.144.142.304.28.484.414A9.94 9.94 0 0 1 14 10c3.616 0 6.79 1.93 8.548 4.814a9.887 9.887 0 0 1 2.356-3.742c.43-.43.946-.826 1.522-1.188.666-.556 1.176-1.048 1.284-1.262.682-1.748.228-3.784-1.16-5.172a4.958 4.958 0 0 0-7.002 0C18.874 4.124 18 5.718 18 5.718s-.93-1.65-1.548-2.268a4.956 4.956 0 0 0-7.002 0 4.958 4.958 0 0 0 0 7.002ZM6 20c0 .68.084 1.354.252 2h15.496c.168-.646.252-1.32.252-2 0-4.412-3.588-8-8-8s-8 3.588-8 8Zm39.29 5.074A3.017 3.017 0 0 0 42.984 24H5.018c-.888 0-1.73.39-2.306 1.074a2.994 2.994 0 0 0-.668 2.436c1.364 8.018 6.6 14.746 14.38 18.492h15.152c7.782-3.746 13.018-10.474 14.38-18.492a2.99 2.99 0 0 0-.668-2.434l.002-.002Z" fill="#AD893C"/></g><defs><clipPath id="a"><path fill="#fff" d="M0 0h48v48H0z"/></clipPath></defs></svg>