<svg width="64" height="64" fill="none" xmlns="http://www.w3.org/2000/svg"><g clip-path="url(#a)"><path d="M52 5.333H12c-6.616 0-12 5.384-12 12v40a1.334 1.334 0 0 0 2.667 0v-6.666h58.666v6.666a1.334 1.334 0 0 0 2.667 0v-40c0-6.616-5.384-12-12-12ZM12 8h40c5.147 0 9.333 4.187 9.333 9.333v20H56v-4C56 28.187 51.813 24 46.667 24H40a9.337 9.337 0 0 0-8 4.53A9.337 9.337 0 0 0 24 24h-6.667C12.187 24 8 28.187 8 33.333v4H2.667v-20C2.667 12.187 6.853 8 12 8Zm21.333 29.333v-4A6.674 6.674 0 0 1 40 26.667h6.667a6.674 6.674 0 0 1 6.666 6.666v4h-20Zm-22.666 0v-4a6.676 6.676 0 0 1 6.666-6.666H24a6.676 6.676 0 0 1 6.667 6.666v4h-20ZM2.667 48v-8h58.666v8H2.667Z" fill="#AD893C"/></g><defs><clipPath id="a"><path fill="#fff" d="M0 0h64v64H0z"/></clipPath></defs></svg>