<svg width="48" height="48" fill="none" xmlns="http://www.w3.org/2000/svg"><path d="M14.02 42c1.004 0 1.86-.722 1.988-1.68.334-2.462 2.464-4.32 4.954-4.32 2.49 0 4.62 1.858 4.954 4.32.13.958.986 1.68 1.99 1.68H29c4.962 0 9-4.038 9-9V9c0-4.962-4.038-9-9-9h-1.094c-1.004 0-1.858.722-1.99 1.68C25.582 4.142 23.452 6 20.962 6c-2.49 0-4.62-1.858-4.954-4.318C15.88.724 15.024 0 14.02 0H13C8.038 0 4 4.038 4 9v24c0 4.962 4.038 9 9 9h1.02ZM6 33V9c0-3.86 3.14-7 7-7l1.026-.05C14.494 5.4 17.476 8 20.962 8c3.486 0 6.468-2.602 6.944-6H29c3.86 0 7 3.14 7 7v24c0 3.86-3.14 7-7 7l-1.1.05C27.432 36.6 24.45 34 20.964 34c-3.486 0-6.468 2.602-6.942 6h-1.02C9.142 40 6 36.86 6 33Zm38-22v24c0 7.168-5.832 13-13 13H13a1 1 0 0 1 0-2h18c6.066 0 11-4.936 11-11V11a1 1 0 0 1 2 0Z" fill="#AD893C"/></svg>