<svg width="32" height="32" fill="none" xmlns="http://www.w3.org/2000/svg"><g clip-path="url(#a)"><path d="M26.667 10.667A5.339 5.339 0 0 0 32 5.333 5.339 5.339 0 0 0 26.667 0a5.339 5.339 0 0 0-5.334 5.333 5.339 5.339 0 0 0 5.334 5.334Zm0-9.334c2.205 0 4 1.795 4 4 0 2.206-1.795 4-4 4-2.206 0-4-1.794-4-4 0-2.205 1.794-4 4-4Zm-3.334 14.678a2.764 2.764 0 0 0-2.537 1.628l-6.07 13.354-.06 1.008H32v-.732l-6.13-13.633a2.764 2.764 0 0 0-2.537-1.625ZM16.34 30.667l5.669-12.474a1.43 1.43 0 0 1 1.325-.849c.584 0 1.082.317 1.324.847l5.671 12.476h-13.99ZM14.66 8.856A1.432 1.432 0 0 0 13.333 8c-.584 0-1.081.317-1.325.85L1.689 30.666H12V32H0l.064-1.017L10.8 8.285a2.762 2.762 0 0 1 2.533-1.618c1.103 0 2.076.622 2.536 1.625l3.3 6.984a5.637 5.637 0 0 0-.801 1.259l-.037.081-3.671-7.761.001.001Z" fill="#AD893C"/></g><defs><clipPath id="a"><path fill="#fff" d="M0 0h32v32H0z"/></clipPath></defs></svg>