<svg width="32" height="32" fill="none" xmlns="http://www.w3.org/2000/svg"><g clip-path="url(#a)"><path d="M7.393 2.668c-.01 0-.005 0 0 0Zm23.272 13.999V22a3.337 3.337 0 0 1-3.333 3.333h-2V26c0 3.308-2.692 6-6 6h-12c-3.308 0-6-2.692-6-6V11.333c0-1.088.524-2.056 1.333-2.665V7.333c0-2.573 2.107-4.661 4.728-4.665.006 0 .01 0 0 0A5.346 5.346 0 0 1 11.997 0a5.29 5.29 0 0 1 4.786 3.027 5.123 5.123 0 0 1 1.881-.36A5.339 5.339 0 0 1 23.997 8v.667a3.33 3.33 0 0 1 1.334 2.666v2h2a3.338 3.338 0 0 1 3.334 3.334ZM4 8.067c.216-.044.438-.067.666-.067h4c.368 0 .667.299.667.667v9.19c0 1.052.713 1.962 1.66 2.116A2.004 2.004 0 0 0 13.332 18V8.667c0-.368.299-.667.667-.667h8c.228 0 .45.023.666.067 0-2.268-1.794-4.067-4-4.067-.654 0-1.3.173-1.917.513a.661.661 0 0 1-.57.036.675.675 0 0 1-.389-.417 3.976 3.976 0 0 0-3.792-2.799 4.012 4.012 0 0 0-3.62 2.326.67.67 0 0 1-.674.381S7.404 4 7.33 4a3.337 3.337 0 0 0-3.334 3.333L4 8.067Zm20 3.266c0-1.102-.898-2-2-2h-7.334V18a3.337 3.337 0 0 1-3.888 3.288C9.193 21.031 8 19.555 8 17.858V9.332H4.667c-1.103 0-2 .898-2 2V26a4.672 4.672 0 0 0 4.666 4.667h12A4.672 4.672 0 0 0 24 26l-.001-14.667Zm5.333 5.334c0-1.103-.897-2-2-2h-2V24h2c1.103 0 2-.897 2-2v-5.333Z" fill="#AD893C"/></g><defs><clipPath id="a"><path fill="#fff" d="M0 0h32v32H0z"/></clipPath></defs></svg>