<svg width="32" height="32" fill="none" xmlns="http://www.w3.org/2000/svg"><g clip-path="url(#a)"><path d="M27.333 18.667h-14v-14A4.672 4.672 0 0 0 8.667 0h-4A4.672 4.672 0 0 0 0 4.667V26c0 3.308 2.692 6 6 6h21.333A4.672 4.672 0 0 0 32 27.333v-4a4.672 4.672 0 0 0-4.667-4.666Zm3.334 8.666a3.336 3.336 0 0 1-3.334 3.334H6A4.672 4.672 0 0 1 1.333 26V4.667a3.337 3.337 0 0 1 3.334-3.334h4A3.337 3.337 0 0 1 12 4.667v.666H8.667a.667.667 0 0 0 0 1.334H12V12H8.667a.667.667 0 0 0 0 1.333H12v5.334H8.667a.667.667 0 0 0 0 1.333H12v3.333a.667.667 0 0 0 1.333 0V20h5.334v3.333a.667.667 0 0 0 1.333 0V20h5.333v3.333a.667.667 0 0 0 1.334 0V20h.666a3.336 3.336 0 0 1 3.334 3.333v4Z" fill="#AD893C"/></g><defs><clipPath id="a"><path fill="#fff" d="M0 0h32v32H0z"/></clipPath></defs></svg>