<svg width="32" height="32" fill="none" xmlns="http://www.w3.org/2000/svg"><g clip-path="url(#a)"><path d="M31.47 14.047a2.981 2.981 0 0 0-1.851-1.178l1.2-1.2c1.072-1.07 1.249-2.757.41-3.92a2.986 2.986 0 0 0-2.164-1.237c.382-.944.306-2.025-.286-2.85a2.99 2.99 0 0 0-2.188-1.24 2.974 2.974 0 0 0-2.347.862l-.475.475a2.765 2.765 0 0 0-.472-1.154 2.99 2.99 0 0 0-2.188-1.241 2.974 2.974 0 0 0-2.346.863L6.667 14.32v-4.196c0-1.697-1.195-3.172-2.779-3.43a3.36 3.36 0 0 0-2.713.749A3.327 3.327 0 0 0 0 9.983v9.56a11.4 11.4 0 0 0 3.348 8.04l1.087 1.08a11.406 11.406 0 0 0 8.093 3.338h.105a11.41 11.41 0 0 0 8.138-3.48L31.06 17.97c1.072-1.07 1.25-2.756.41-3.92v-.002Zm-1.36 2.982L19.812 27.588a10.086 10.086 0 0 1-7.193 3.079c-2.727-.015-5.307-1.024-7.247-2.95l-1.086-1.08a10.065 10.065 0 0 1-2.954-7.096v-9.56A2 2 0 0 1 3.675 8.01c.945.154 1.66 1.063 1.66 2.115v5.805a.667.667 0 0 0 1.138.472L19.704 3.168a1.664 1.664 0 0 1 1.297-.476c.488.04.919.285 1.212.692.46.639.344 1.584-.269 2.197l-6.85 6.848a.667.667 0 0 0 .945.943l6.848-6.847 2.297-2.297a1.652 1.652 0 0 1 1.297-.476c.488.04.919.285 1.212.692.46.64.344 1.585-.27 2.199L25.17 8.895 18.365 15.7a.667.667 0 0 0 .944.943l8.33-8.33a1.657 1.657 0 0 1 1.297-.476c.488.04.919.286 1.212.692.46.639.344 1.584-.27 2.199l-3.586 3.587-4.655 4.654a.667.667 0 0 0 .943.943l4.157-4.156.498-.497.645-.646a1.66 1.66 0 0 1 1.297-.476c.488.04.919.286 1.212.692.46.639.344 1.584-.277 2.204l-.003-.004Zm-15.777.999c-.962 0-1.792.404-2.333 1.056-.541-.652-1.37-1.056-2.333-1.056-1.655 0-3 1.43-3 3.188 0 2.005 2.101 4.147 3.862 5.59.426.35.948.525 1.471.525.523 0 1.044-.175 1.47-.524 1.763-1.444 3.863-3.586 3.863-5.591 0-1.757-1.345-3.188-3-3.188Zm-1.708 7.748a.975.975 0 0 1-1.25 0C9.229 24.019 8 22.357 8 21.216c0-1.023.748-1.855 1.667-1.855.981 0 1.666.668 1.666 1.626a.667.667 0 0 0 1.334 0c0-.958.685-1.626 1.666-1.626.919 0 1.667.832 1.667 1.855 0 1.14-1.23 2.803-3.375 4.56Z" fill="#AD893C"/></g><defs><clipPath id="a"><path fill="#fff" d="M0 0h32v32H0z"/></clipPath></defs></svg>