<svg width="32" height="32" fill="none" xmlns="http://www.w3.org/2000/svg"><g clip-path="url(#a)"><path d="m29.7 9.112-10-7.835a5.986 5.986 0 0 0-7.401 0L2.3 9.112A5.961 5.961 0 0 0 0 13.835V26c0 3.308 2.692 6 6 6h20c3.308 0 6-2.692 6-6V13.835a5.961 5.961 0 0 0-2.3-4.723ZM30.667 26A4.672 4.672 0 0 1 26 30.667H6A4.672 4.672 0 0 1 1.333 26V13.835c0-1.444.652-2.783 1.79-3.674l10-7.834a4.653 4.653 0 0 1 5.754 0l10 7.834a4.636 4.636 0 0 1 1.788 3.674L30.667 26Zm-13.334-.667a1.334 1.334 0 1 1-2.667 0 1.334 1.334 0 0 1 2.667 0Zm2.439-3.77a.667.667 0 0 1-.944.942 4.004 4.004 0 0 0-5.657 0 .667.667 0 0 1-.943-.942 5.336 5.336 0 0 1 7.543 0h.001Zm5.656-5.658a.667.667 0 0 1-.944.943c-4.679-4.68-12.292-4.68-16.97 0a.667.667 0 0 1-.943-.943c5.197-5.197 13.658-5.197 18.857 0ZM22.6 18.733a.667.667 0 0 1-.944.943c-3.12-3.117-8.195-3.117-11.313 0a.667.667 0 0 1-.943-.943c3.639-3.638 9.56-3.638 13.199 0h.001Z" fill="#AD893C"/></g><defs><clipPath id="a"><path fill="#fff" d="M0 0h32v32H0z"/></clipPath></defs></svg>