<svg width="32" height="32" fill="none" xmlns="http://www.w3.org/2000/svg"><g clip-path="url(#a)"><path d="m31.98 4.885-.942.943-4.124-4.124a1.285 1.285 0 0 0-.25-.195V20h-1.333V1.51a1.313 1.313 0 0 0-.249.194l-4.137 4.137-.943-.942L24.14.76a2.63 2.63 0 0 1 3.715 0l4.126 4.124ZM12 23.333a3.337 3.337 0 0 1-3.334 3.334 3.337 3.337 0 0 1-3.333-3.334A3.34 3.34 0 0 1 8 20.067V5.333h1.333v14.734a3.338 3.338 0 0 1 2.666 3.266Zm-1.334 0c0-1.102-.897-2-2-2-1.102 0-2 .898-2 2 0 1.103.898 2 2 2 1.103 0 2-.897 2-2Zm6.667 0a8.639 8.639 0 0 1-3.2 6.726 8.655 8.655 0 0 1-5.481 1.938 9.05 9.05 0 0 1-1.835-.189c-3.288-.683-5.952-3.356-6.63-6.65-.614-2.994.31-5.986 2.48-8.066V6c0-3.308 2.691-6 6-6 3.307 0 6 2.692 6 6v11.092a8.679 8.679 0 0 1 2.666 6.241Zm-1.333 0c0-2.072-.891-4.06-2.446-5.454l-.221-.199V6a4.672 4.672 0 0 0-4.667-4.667A4.672 4.672 0 0 0 4 6v11.68l-.222.199c-1.97 1.766-2.824 4.386-2.285 7.01.572 2.782 2.819 5.038 5.593 5.614 2.22.464 4.483-.076 6.204-1.478a7.31 7.31 0 0 0 2.708-5.692H16Z" fill="#AD893C"/></g><defs><clipPath id="a"><path fill="#fff" d="M0 0h32v32H0z"/></clipPath></defs></svg>