<svg width="32" height="32" fill="none" xmlns="http://www.w3.org/2000/svg"><path d="M24 20a1.334 1.334 0 1 1-2.668-.001A1.334 1.334 0 0 1 24 20Zm4-6.667a1.334 1.334 0 1 0 .001 2.668 1.334 1.334 0 0 0 0-2.668ZM22.667 24a1.334 1.334 0 1 0 0 2.668 1.334 1.334 0 0 0 0-2.668ZM28 18.667a1.334 1.334 0 1 0 .001 2.667 1.334 1.334 0 0 0 0-2.667ZM28 24a1.334 1.334 0 1 0 .001 2.668 1.334 1.334 0 0 0 0-2.668Zm0 5.333a1.334 1.334 0 1 0 .001 2.668 1.334 1.334 0 0 0 0-2.668Zm-5.333 0a1.334 1.334 0 1 0 0 2.668 1.334 1.334 0 0 0 0-2.668ZM17.333 24a1.334 1.334 0 1 0 .001 2.668 1.334 1.334 0 0 0 0-2.668Zm5.334-10.667a1.334 1.334 0 1 0 0 2.668 1.334 1.334 0 0 0 0-2.668Zm4-4a1.334 1.334 0 1 0 2.668 0 1.334 1.334 0 0 0-2.668 0Zm-9.334 9.334a1.334 1.334 0 1 0 .001 2.667 1.334 1.334 0 0 0 0-2.667Zm0 10.666a1.334 1.334 0 1 0 .001 2.668 1.334 1.334 0 0 0 0-2.668ZM28.276 4 13.333 18.943 12 17.609V3.581c-.472-.525-2.212-2.248-4.777-2.248A3.226 3.226 0 0 0 4 4.556V32H2.667V4.556A4.561 4.561 0 0 1 7.223 0c3.086 0 5.114 1.96 5.748 2.667h13.973L28.276 4Zm-1.885 0H13.333v13.057L26.391 4Z" fill="#AD893C"/></svg>