<svg width="32" height="32" fill="none" xmlns="http://www.w3.org/2000/svg"><g clip-path="url(#a)"><path d="M26 8h-8.484l6.31-6.882a.667.667 0 1 0-.985-.902L16 7.68 9.159.216a.668.668 0 0 0-.984.902L14.484 8H6c-3.308 0-6 2.692-6 6v12c0 3.308 2.692 6 6 6h20c3.308 0 6-2.692 6-6V14c0-3.308-2.692-6-6-6Zm4.667 18A4.672 4.672 0 0 1 26 30.667H6A4.672 4.672 0 0 1 1.333 26V14A4.672 4.672 0 0 1 6 9.334h20A4.672 4.672 0 0 1 30.667 14v12Zm-10-12.666H7.333c-1.102 0-2 .897-2 2v9.333c0 1.103.898 2 2 2h13.334c1.102 0 2-.897 2-2v-9.333c0-1.103-.898-2-2-2Zm.666 11.333a.667.667 0 0 1-.666.667H7.333a.667.667 0 0 1-.666-.667v-9.333c0-.368.298-.667.666-.667h13.334c.368 0 .666.299.666.667v9.333Zm6.667-10a1.334 1.334 0 1 1-2.668 0 1.334 1.334 0 0 1 2.668 0ZM28 20a1.334 1.334 0 1 1-2.668 0A1.334 1.334 0 0 1 28 20Zm0 5.334a1.334 1.334 0 1 1-2.668-.001 1.334 1.334 0 0 1 2.668 0Z" fill="#AD893C"/></g><defs><clipPath id="a"><path fill="#fff" d="M0 0h32v32H0z"/></clipPath></defs></svg>