<svg width="32" height="32" fill="none" xmlns="http://www.w3.org/2000/svg"><g clip-path="url(#a)"><path d="M21.333 10.667c-3.736 0-7.028 1.93-8.934 4.845a8.596 8.596 0 0 0-2.47-.753l3.599-4.799-2.966-3.295H6.768L3.803 9.96 7.4 14.759c-4.18.613-7.4 4.225-7.4 8.574C-.001 28.112 3.887 32 8.665 32a8.632 8.632 0 0 0 5.959-2.38A10.617 10.617 0 0 0 21.332 32c5.881 0 10.666-4.785 10.666-10.667 0-5.881-4.784-10.666-10.665-10.666ZM7.363 8h2.606l1.835 2.039-3.139 4.184-3.138-4.184L7.363 8Zm-6.03 15.333c0-4.042 3.29-7.333 7.334-7.333 1.096 0 2.137.243 3.072.676a10.6 10.6 0 0 0-1.073 4.657c0 2.863 1.134 5.464 2.975 7.383a7.3 7.3 0 0 1-4.974 1.95c-4.044 0-7.334-3.29-7.334-7.333Zm13.204 4.39A9.3 9.3 0 0 1 12 21.333c0-1.425.321-2.777.896-3.988A7.33 7.33 0 0 1 16 23.333a7.288 7.288 0 0 1-1.463 4.39Zm6.796 2.944a9.29 9.29 0 0 1-5.812-2.036 8.619 8.619 0 0 0 1.812-5.298 8.662 8.662 0 0 0-3.778-7.152A9.333 9.333 0 0 1 21.332 12c5.147 0 9.334 4.188 9.334 9.333 0 5.146-4.187 9.334-9.334 9.334Zm-8.58-25.811-.943-.943 3.053-3.05.942.942-3.052 3.051Zm-8.224-.05-3.001-3L2.47.862l3 3-.943.942h.001ZM9.335 4H8V0h1.334v4Z" fill="#AD893C"/></g><defs><clipPath id="a"><path fill="#fff" d="M0 0h32v32H0z"/></clipPath></defs></svg>