<svg width="32" height="32" fill="none" xmlns="http://www.w3.org/2000/svg"><path d="M24 14.667a1.334 1.334 0 1 1-.001 2.667A1.334 1.334 0 0 1 24 14.667ZM32 20c0 4.485-7.028 8-16 8-8.972 0-16-3.515-16-8 0-2.66 2.437-5.021 6.676-6.52.103-4.968 3.845-9.101 8.615-9.453 4.502-.33 8.526 2.53 9.701 6.836a2.667 2.667 0 0 1 1.673 2.47c1.299 0 2.38.934 2.616 2.164C31.053 16.812 32 18.361 32 20Zm-6.667-6.667C25.333 12.6 24.736 12 24 12s-1.333.599-1.333 1.333c0 .686-.648 1.334-1.334 1.334a1.334 1.334 0 0 0 0 2.666c.686 0 1.334.648 1.334 1.334C22.667 19.4 23.264 20 24 20s1.333-.599 1.333-1.333c0-.686.648-1.334 1.334-1.334a1.334 1.334 0 0 0 0-2.666c-.686 0-1.334-.648-1.334-1.334ZM8 16.315c0 .59.252 1.141.69 1.516C9.853 18.82 12.064 20 16 20c2.076 0 3.873-.344 5.367-1-.015-.11-.034-.22-.034-.334a2.65 2.65 0 0 1-2.042-.974A17.254 17.254 0 0 1 16 18c-4.236 0-6.696-1.296-8-2.347v.663-.001Zm0-2.627v.103c.445.59 2.524 2.876 8 2.876.961 0 1.86-.09 2.71-.234a2.58 2.58 0 0 1-.043-.433 2.67 2.67 0 0 1 2.666-2.667c0-1.309.951-2.396 2.196-2.618a7.967 7.967 0 0 0-8.138-5.359C11.247 5.661 8 9.323 8 13.688ZM30.667 20c0-1.193-.734-2.19-1.559-2.935a2.668 2.668 0 0 1-2.441 1.602A2.67 2.67 0 0 1 24 21.333a2.66 2.66 0 0 1-2.143-1.094c-1.654.717-3.614 1.094-5.857 1.094-4.344 0-6.843-1.353-8.175-2.488a3.318 3.318 0 0 1-1.158-2.529v-1.408C3.323 16.19 1.333 18.058 1.333 20c0 3.613 6.718 6.667 14.667 6.667 7.95 0 14.667-3.054 14.667-6.667Z" fill="#AD893C"/></svg>