<svg width="16" height="16" fill="none" xmlns="http://www.w3.org/2000/svg"><path d="M8 3.892a4.108 4.108 0 1 0 0 8.216 4.108 4.108 0 0 0 0-8.216Zm0 6.774a2.667 2.667 0 1 1 0-5.333 2.667 2.667 0 0 1 0 5.333Zm5.23-6.937a.96.96 0 1 1-1.92 0 .96.96 0 0 1 1.92 0Zm2.35-.97a3.923 3.923 0 0 0-.922-1.416C13.76.445 12.534.104 11.298.048 10.446.008 10.174 0 8 0 5.828 0 5.555.009 4.702.048c-1.239.056-2.464.4-3.36 1.295C.445 2.24.106 3.464.049 4.702.009 5.555 0 5.827 0 8c0 2.172.01 2.445.048 3.299.057 1.242.396 2.46 1.295 3.358.899.898 2.121 1.238 3.359 1.295C5.555 15.99 5.828 16 8 16c2.173 0 2.445-.01 3.299-.048 1.24-.057 2.462-.397 3.358-1.295.897-.897 1.239-2.123 1.295-3.358.039-.854.048-1.127.048-3.3 0-2.172-.01-2.444-.048-3.297-.039-.852-.174-1.433-.372-1.942Zm-1.068 8.474c-.04.868-.242 1.772-.874 2.405-.64.642-1.53.834-2.405.874-.844.038-1.097.046-3.233.046s-2.389-.008-3.233-.046c-.876-.04-1.765-.236-2.405-.874-.638-.636-.835-1.537-.874-2.405-.038-.844-.046-1.097-.046-3.233s.008-2.39.046-3.233c.04-.865.245-1.775.874-2.405.637-.639 1.535-.834 2.405-.874.844-.038 1.097-.047 3.233-.047s2.39.009 3.233.047c.876.04 1.766.235 2.405.874.64.639.834 1.534.874 2.405.038.844.047 1.097.047 3.233s-.008 2.39-.047 3.232Z" fill="#1E2227" fill-opacity=".64"/></svg>