<svg width="16" height="16" fill="none" xmlns="http://www.w3.org/2000/svg"><g clip-path="url(#a)"><path d="M13.28 13.281h-2.222v-3.48c0-.83-.015-1.9-1.156-1.9-1.157 0-1.334.905-1.334 1.839v3.54H6.345V6.124H8.48v.978h.03a2.338 2.338 0 0 1 2.105-1.156c2.252 0 2.668 1.482 2.668 3.41l-.001 3.926ZM3.838 5.145a1.29 1.29 0 1 1 0-2.58 1.29 1.29 0 0 1 0 2.58ZM4.95 13.28H2.724V6.123h2.225v7.158ZM14.39.5H1.607A1.095 1.095 0 0 0 .5 1.582v12.836A1.095 1.095 0 0 0 1.607 15.5h12.782a1.098 1.098 0 0 0 1.111-1.082V1.58A1.097 1.097 0 0 0 14.389.5Z" fill="#1E2227" fill-opacity=".64"/></g><defs><clipPath id="a"><path fill="#fff" d="M0 0h16v16H0z"/></clipPath></defs></svg>