<svg width="50" height="50" viewBox="0 0 50 50" fill="none" xmlns="http://www.w3.org/2000/svg">
<path d="M22.3542 25.3395C23.1004 25.9509 24.0353 26.285 25 26.285C25.9647 26.285 26.8996 25.9509 27.6459 25.3395L45.9459 10.3062C45.172 9.36713 44.2006 8.61014 43.1009 8.0891C42.0012 7.56806 40.8002 7.29578 39.5834 7.29163H10.4167C9.19983 7.29578 7.99882 7.56806 6.89913 8.0891C5.79944 8.61014 4.8281 9.36713 4.0542 10.3062L22.3542 25.3395Z" fill="black"/>
<path d="M30.2916 28.5604C28.7984 29.7816 26.9289 30.4488 24.9999 30.4488C23.071 30.4488 21.2014 29.7816 19.7083 28.5604L2.22909 14.2C2.13918 14.6698 2.09038 15.1466 2.08325 15.625V34.375C2.08546 36.5844 2.96414 38.7027 4.52647 40.2651C6.08879 41.8274 8.20713 42.7061 10.4166 42.7083H39.5833C41.7927 42.7061 43.911 41.8274 45.4734 40.2651C47.0357 38.7027 47.9144 36.5844 47.9166 34.375V15.625C47.9095 15.1466 47.8607 14.6698 47.7708 14.2L30.2916 28.5604Z" fill="black"/>
</svg>
