<svg width="20" height="20" viewBox="0 0 20 20" fill="none" xmlns="http://www.w3.org/2000/svg">
<path d="M17.5 6.875H8.33333M3.95833 6.875H2.5" stroke="white" stroke-width="1.5"/>
<path d="M6.25 5C6.00377 5 5.75995 5.0485 5.53247 5.14273C5.30498 5.23695 5.09828 5.37507 4.92417 5.54917C4.75007 5.72328 4.61195 5.92998 4.51773 6.15747C4.4235 6.38495 4.375 6.62877 4.375 6.875C4.375 7.12123 4.4235 7.36505 4.51773 7.59253C4.61195 7.82002 4.75007 8.02672 4.92417 8.20082C5.09828 8.37493 5.30498 8.51305 5.53247 8.60727C5.75995 8.7015 6.00377 8.75 6.25 8.75C6.74728 8.75 7.22419 8.55246 7.57582 8.20082C7.92746 7.84919 8.125 7.37228 8.125 6.875C8.125 6.37772 7.92746 5.90081 7.57582 5.54917C7.22419 5.19754 6.74728 5 6.25 5Z" stroke="white" stroke-width="1.5"/>
<path d="M2.5 13.125H11.4583M15.625 13.125H17.5" stroke="white" stroke-width="1.5"/>
<path d="M13.75 11.25C13.2527 11.25 12.7758 11.4475 12.4242 11.7992C12.0725 12.1508 11.875 12.6277 11.875 13.125C11.875 13.6223 12.0725 14.0992 12.4242 14.4508C12.7758 14.8025 13.2527 15 13.75 15C14.2473 15 14.7242 14.8025 15.0758 14.4508C15.4275 14.0992 15.625 13.6223 15.625 13.125C15.625 12.6277 15.4275 12.1508 15.0758 11.7992C14.7242 11.4475 14.2473 11.25 13.75 11.25Z" stroke="white" stroke-width="1.5"/>
</svg>
