<svg xmlns="http://www.w3.org/2000/svg">
    <symbol id="phone" viewBox="0 0 24 24" xmlns="http://www.w3.org/2000/svg">
        <path d="M9.50246 4.25722C9.19873 3.4979 8.46332 3 7.64551 3H4.89474C3.8483 3 3 3.8481 3 4.89453C3 13.7892 10.2108 21 19.1055 21C20.1519 21 21 20.1516 21 19.1052L21.0005 16.354C21.0005 15.5361 20.5027 14.8009 19.7434 14.4971L17.1069 13.4429C16.4249 13.1701 15.6483 13.2929 15.0839 13.7632L14.4035 14.3307C13.6089 14.9929 12.4396 14.9402 11.7082 14.2088L9.79222 12.2911C9.06079 11.5596 9.00673 10.3913 9.66895 9.59668L10.2363 8.9163C10.7066 8.35195 10.8305 7.57516 10.5577 6.89309L9.50246 4.25722Z" stroke="currentColor" stroke-width="1.5" stroke-linecap="round" stroke-linejoin="round"/>
    </symbol>

    <symbol id="mail" viewBox="0 0 24 24" xmlns="http://www.w3.org/2000/svg">
        <path d="M4 6L10.1076 10.6123L10.1097 10.614C10.7878 11.1113 11.1271 11.3601 11.4988 11.4562C11.8272 11.5412 12.1725 11.5412 12.501 11.4562C12.8729 11.36 13.2132 11.1105 13.8926 10.6123C13.8926 10.6123 17.8101 7.60594 20 6M3 15.8002V8.2002C3 7.08009 3 6.51962 3.21799 6.0918C3.40973 5.71547 3.71547 5.40973 4.0918 5.21799C4.51962 5 5.08009 5 6.2002 5H17.8002C18.9203 5 19.4796 5 19.9074 5.21799C20.2837 5.40973 20.5905 5.71547 20.7822 6.0918C21 6.5192 21 7.07899 21 8.19691V15.8036C21 16.9215 21 17.4805 20.7822 17.9079C20.5905 18.2842 20.2837 18.5905 19.9074 18.7822C19.48 19 18.921 19 17.8031 19H6.19691C5.07899 19 4.5192 19 4.0918 18.7822C3.71547 18.5905 3.40973 18.2842 3.21799 17.9079C3 17.4801 3 16.9203 3 15.8002Z" stroke="currentColor" stroke-width="1.5" stroke-linecap="round" stroke-linejoin="round"/>
    </symbol>

    <symbol id="pin" viewBox="0 0 24 24" xmlns="http://www.w3.org/2000/svg">
        <path d="M5 9.92285C5 14.7747 9.24448 18.7869 11.1232 20.3252C11.3921 20.5454 11.5281 20.6568 11.7287 20.7132C11.8849 20.7572 12.1148 20.7572 12.271 20.7132C12.472 20.6567 12.6071 20.5463 12.877 20.3254C14.7557 18.7871 18.9999 14.7751 18.9999 9.9233C18.9999 8.08718 18.2625 6.32605 16.9497 5.02772C15.637 3.72939 13.8566 3 12.0001 3C10.1436 3 8.36301 3.7295 7.05025 5.02783C5.7375 6.32616 5 8.08674 5 9.92285Z" stroke="currentColor" stroke-width="1.5" stroke-linecap="round" stroke-linejoin="round"/>
        <path d="M10 9C10 10.1046 10.8954 11 12 11C13.1046 11 14 10.1046 14 9C14 7.89543 13.1046 7 12 7C10.8954 7 10 7.89543 10 9Z" stroke="currentColor" stroke-width="1.5" stroke-linecap="round" stroke-linejoin="round"/>
    </symbol>

    <symbol id="calendar" viewBox="0 0 24 24" xmlns="http://www.w3.org/2000/svg">
        <path d="M8 4H7.2002C6.08009 4 5.51962 4 5.0918 4.21799C4.71547 4.40973 4.40973 4.71547 4.21799 5.0918C4 5.51962 4 6.08009 4 7.2002V8M8 4H16M8 4V2M16 4H16.8002C17.9203 4 18.4796 4 18.9074 4.21799C19.2837 4.40973 19.5905 4.71547 19.7822 5.0918C20 5.5192 20 6.07899 20 7.19691V8M16 4V2M4 8V16.8002C4 17.9203 4 18.4801 4.21799 18.9079C4.40973 19.2842 4.71547 19.5905 5.0918 19.7822C5.5192 20 6.07899 20 7.19691 20H16.8031C17.921 20 18.48 20 18.9074 19.7822C19.2837 19.5905 19.5905 19.2842 19.7822 18.9079C20 18.4805 20 17.9215 20 16.8036V8M4 8H20M16 16H16.002L16.002 16.002L16 16.002V16ZM12 16H12.002L12.002 16.002L12 16.002V16ZM8 16H8.002L8.00195 16.002L8 16.002V16ZM16.002 12V12.002L16 12.002V12H16.002ZM12 12H12.002L12.002 12.002L12 12.002V12ZM8 12H8.002L8.00195 12.002L8 12.002V12Z" stroke="currentColor" stroke-width="1.5" stroke-linecap="round" stroke-linejoin="round"/>
    </symbol>

    <symbol id="clock" viewBox="0 0 24 24" xmlns="http://www.w3.org/2000/svg">
        <path d="M12 7V12H17M12 21C7.02944 21 3 16.9706 3 12C3 7.02944 7.02944 3 12 3C16.9706 3 21 7.02944 21 12C21 16.9706 16.9706 21 12 21Z" stroke="currentColor" stroke-width="1.5" stroke-linecap="round" stroke-linejoin="round"/>
    </symbol>

    <symbol id="bookmark" viewBox="0 0 24 24" xmlns="http://www.w3.org/2000/svg">
        <path d="M6 7.2002V16.6854C6 18.0464 6 18.7268 6.20412 19.1433C6.58245 19.9151 7.41157 20.3588 8.26367 20.2454C8.7234 20.1842 9.28964 19.8067 10.4221 19.0518L10.4248 19.0499C10.8737 18.7507 11.0981 18.6011 11.333 18.5181C11.7642 18.3656 12.2348 18.3656 12.666 18.5181C12.9013 18.6012 13.1266 18.7515 13.5773 19.0519C14.7098 19.8069 15.2767 20.1841 15.7364 20.2452C16.5885 20.3586 17.4176 19.9151 17.7959 19.1433C18 18.7269 18 18.0462 18 16.6854V7.19691C18 6.07899 18 5.5192 17.7822 5.0918C17.5905 4.71547 17.2837 4.40973 16.9074 4.21799C16.4796 4 15.9203 4 14.8002 4H9.2002C8.08009 4 7.51962 4 7.0918 4.21799C6.71547 4.40973 6.40973 4.71547 6.21799 5.0918C6 5.51962 6 6.08009 6 7.2002Z" stroke="currentColor" stroke-width="1.5" stroke-linecap="round" stroke-linejoin="round"/>
    </symbol>

    <symbol id="home" viewBox="0 0 24 24" xmlns="http://www.w3.org/2000/svg">
        <path d="M20 17.0002V11.4522C20 10.9179 19.9995 10.6506 19.9346 10.4019C19.877 10.1816 19.7825 9.97307 19.6546 9.78464C19.5102 9.57201 19.3096 9.39569 18.9074 9.04383L14.1074 4.84383C13.3608 4.19054 12.9875 3.86406 12.5674 3.73982C12.1972 3.63035 11.8026 3.63035 11.4324 3.73982C11.0126 3.86397 10.6398 4.19014 9.89436 4.84244L5.09277 9.04383C4.69064 9.39569 4.49004 9.57201 4.3457 9.78464C4.21779 9.97307 4.12255 10.1816 4.06497 10.4019C4 10.6506 4 10.9179 4 11.4522V17.0002C4 17.932 4 18.3978 4.15224 18.7654C4.35523 19.2554 4.74432 19.6452 5.23438 19.8482C5.60192 20.0005 6.06786 20.0005 6.99974 20.0005C7.93163 20.0005 8.39808 20.0005 8.76562 19.8482C9.25568 19.6452 9.64467 19.2555 9.84766 18.7654C9.9999 18.3979 10 17.932 10 17.0001V16.0001C10 14.8955 10.8954 14.0001 12 14.0001C13.1046 14.0001 14 14.8955 14 16.0001V17.0001C14 17.932 14 18.3979 14.1522 18.7654C14.3552 19.2555 14.7443 19.6452 15.2344 19.8482C15.6019 20.0005 16.0679 20.0005 16.9997 20.0005C17.9316 20.0005 18.3981 20.0005 18.7656 19.8482C19.2557 19.6452 19.6447 19.2554 19.8477 18.7654C19.9999 18.3978 20 17.932 20 17.0002Z" stroke="currentColor" stroke-width="1.5" stroke-linecap="round" stroke-linejoin="round"/>
    </symbol>

    <symbol id="search" viewBox="0 0 24 24" xmlns="http://www.w3.org/2000/svg">
        <path d="M15 15L21 21M10 17C6.13401 17 3 13.866 3 10C3 6.13401 6.13401 3 10 3C13.866 3 17 6.13401 17 10C17 13.866 13.866 17 10 17Z" stroke="currentColor" stroke-width="1.5" stroke-linecap="round" stroke-linejoin="round"/>
    </symbol>

    <symbol id="burger" viewBox="0 0 24 24" xmlns="http://www.w3.org/2000/svg">
        <path d="M3 17H21M3 12H21M3 7H21" stroke="currentColor" stroke-width="1.5" stroke-linecap="round" stroke-linejoin="round"/>
    </symbol>

    <symbol id="close" viewBox="0 0 24 24" xmlns="http://www.w3.org/2000/svg">
        <path d="M18 18L12 12M12 12L6 6M12 12L18 6M12 12L6 18" stroke="currentColor" stroke-width="1.5" stroke-linecap="round" stroke-linejoin="round"/>
    </symbol>

    <symbol id="user" viewBox="0 0 24 24" xmlns="http://www.w3.org/2000/svg">
        <path d="M20 21C20 18.2386 16.4183 16 12 16C7.58172 16 4 18.2386 4 21M12 13C9.23858 13 7 10.7614 7 8C7 5.23858 9.23858 3 12 3C14.7614 3 17 5.23858 17 8C17 10.7614 14.7614 13 12 13Z" stroke="currentColor" stroke-width="1.5" stroke-linecap="round" stroke-linejoin="round"/>
    </symbol>

    <symbol id="filter" viewBox="0 0 24 24" xmlns="http://www.w3.org/2000/svg">
        <path d="M14 15H21M3 15H5M5 15C5 16.3807 6.11929 17.5 7.5 17.5C8.88071 17.5 10 16.3807 10 15C10 13.6193 8.88071 12.5 7.5 12.5C6.11929 12.5 5 13.6193 5 15ZM20 9H21M3 9H10M16.5 11.5C15.1193 11.5 14 10.3807 14 9C14 7.61929 15.1193 6.5 16.5 6.5C17.8807 6.5 19 7.61929 19 9C19 10.3807 17.8807 11.5 16.5 11.5Z" stroke="currentColor" stroke-width="1.5" stroke-linecap="round" stroke-linejoin="round"/>
    </symbol>

    <symbol id="chevron-down" viewBox="0 0 24 24" xmlns="http://www.w3.org/2000/svg" fill="none">
        <path d="M6 9L12 15L18 9" stroke="currentColor" stroke-width="2" stroke-linecap="round" stroke-linejoin="round"/>
    </symbol>

    <symbol id="btn-arrow" xmlns="http://www.w3.org/2000/svg" width="12" height="12" viewBox="0 0 12 12" fill="none">
        <path d="M2.5 6H9.5M9.5 6L6 2.5M9.5 6L6 9.5" stroke="currentColor" stroke-width="1.5" stroke-linecap="round" stroke-linejoin="round"/>
    </symbol>
</svg>