<svg width="20" height="20" fill="none" xmlns="http://www.w3.org/2000/svg"><g clip-path="url(#a)"><path d="M10 4.864a5.136 5.136 0 1 0 0 10.272 5.136 5.136 0 0 0 0-10.272Zm0 8.47a3.334 3.334 0 1 1 0-6.668 3.334 3.334 0 0 1 0 6.667Zm6.538-8.672a1.2 1.2 0 1 1-2.4-.001 1.2 1.2 0 0 1 2.4 0Zm2.937-1.212a4.904 4.904 0 0 0-1.153-1.772C17.2.557 15.668.13 14.123.06 13.057.01 12.716 0 10 0S6.944.01 5.877.06C4.33.13 2.797.56 1.68 1.678.555 2.801.13 4.33.06 5.878.011 6.943 0 7.283 0 10c0 2.715.011 3.056.06 4.123.071 1.553.495 3.076 1.619 4.198 1.123 1.123 2.651 1.548 4.198 1.619 1.067.049 1.407.06 4.123.06s3.056-.012 4.123-.06c1.55-.071 3.078-.497 4.199-1.619 1.12-1.12 1.548-2.654 1.618-4.198.049-1.067.06-1.408.06-4.123 0-2.716-.011-3.056-.06-4.123-.049-1.065-.218-1.791-.465-2.427ZM18.14 14.04c-.05 1.087-.302 2.216-1.092 3.008-.8.802-1.914 1.042-3.007 1.092-1.055.048-1.37.058-4.041.058-2.67 0-2.986-.01-4.04-.058-1.097-.05-2.208-.295-3.008-1.092-.798-.795-1.043-1.922-1.092-3.007-.048-1.055-.058-1.37-.058-4.041 0-2.67.01-2.986.058-4.041.049-1.081.306-2.22 1.092-3.007.797-.798 1.92-1.042 3.007-1.092 1.055-.048 1.37-.058 4.04-.058 2.671 0 2.987.01 4.042.058 1.095.05 2.208.293 3.007 1.092.798.8 1.042 1.918 1.092 3.007.048 1.055.059 1.37.059 4.04 0 2.671-.01 2.987-.06 4.042Z" fill="#F5F1E8" fill-opacity=".64"/></g><defs><clipPath id="a"><path fill="#fff" d="M0 0h20v20H0z"/></clipPath></defs></svg>