<svg width="33" height="33" viewBox="0 0 33 33" fill="none" xmlns="http://www.w3.org/2000/svg">
<path d="M10.8049 22.4301C11.1149 22.7751 13.4449 23.9801 13.4449 23.9801C14.1534 24.2818 14.9036 24.474 15.6699 24.5501C21.3649 25.0501 25.9799 21.0501 27.7199 16.6051C27.7347 16.573 27.7424 16.538 27.7424 16.5026C27.7424 16.4672 27.7347 16.4323 27.7199 16.4001C27.2449 15.5001 23.4999 8.63514 16.8299 8.47014C10.1599 8.30514 6.32988 15.3551 5.78988 16.3751C5.76886 16.4125 5.75781 16.4547 5.75781 16.4976C5.75781 16.5405 5.76886 16.5827 5.78988 16.6201C6.88024 18.3799 8.18712 19.9958 9.67988 21.4301" stroke="#131E29" stroke-width="2"/>
<path d="M16.6747 19.89C18.5829 19.89 20.1297 18.3431 20.1297 16.435C20.1297 14.5268 18.5829 12.98 16.6747 12.98C14.7666 12.98 13.2197 14.5268 13.2197 16.435C13.2197 18.3431 14.7666 19.89 16.6747 19.89Z" stroke="#131E29" stroke-width="2"/>
<path d="M27.7401 5.5L5.87012 27.37" stroke="#131E29" stroke-width="2"/>
</svg>
