<svg width="50" height="50" viewBox="0 0 50 50" fill="none" xmlns="http://www.w3.org/2000/svg">
<g clip-path="url(#clip0_1514_32)">
<path d="M48.8159 42.7659L37.3206 31.2697C39.342 28.0566 40.4121 24.3369 40.4073 20.5409C40.4073 9.38229 31.3614 0.337646 20.2032 0.337646C9.04506 0.337646 0 9.38229 0 20.5409C0 31.6999 9.04464 40.7437 20.2032 40.7437C24.3303 40.749 28.359 39.4844 31.7428 37.1215L43.1013 48.4809C43.4764 48.8562 43.9218 49.1537 44.4122 49.3564C44.9025 49.5591 45.428 49.6629 45.9586 49.662C46.4894 49.663 47.0151 49.5591 47.5056 49.3564C47.9962 49.1537 48.4419 48.8562 48.8172 48.4809C49.5747 47.7228 50.0001 46.6948 49.9999 45.6231C49.9996 44.5514 49.5738 43.5236 48.8159 42.7659ZM20.2032 34.1981C12.6613 34.1981 6.54681 28.084 6.54681 20.5417C6.54681 12.9994 12.6613 6.88488 20.2032 6.88488C27.7456 6.88488 33.8596 12.9994 33.8596 20.5417C33.8596 28.084 27.7456 34.1981 20.2032 34.1981Z" fill="black"/>
</g>
<defs>
<clipPath id="clip0_1514_32">
<rect width="50" height="50" fill="white"/>
</clipPath>
</defs>
</svg>
