<svg width="50" height="50" viewBox="0 0 50 50" fill="none" xmlns="http://www.w3.org/2000/svg">
<path d="M45.5062 1.65277C45.0764 1.03548 44.4976 0.584066 43.7712 0.297704C43.3118 0.100275 42.8168 -0.000888003 42.3168 0.000462993V0H7.68333C7.1767 0 6.6923 0.0991962 6.22953 0.297241C5.50264 0.583371 4.92413 1.03537 4.49458 1.65231C4.06516 2.26924 3.8501 2.95193 3.8501 3.70117V46.2987C3.8501 47.0482 4.06516 47.7306 4.49458 48.3482C4.92413 48.965 5.50264 49.4169 6.22953 49.7029C6.68873 49.9002 7.18352 50.0013 7.68333 49.9999C8.71916 49.9999 9.63299 49.6362 10.4263 48.9098L25.0002 34.8971L39.5741 48.9101C40.3453 49.614 41.2596 49.9665 42.3167 49.9665C42.8677 49.9665 43.3524 49.879 43.7711 49.7028C44.4975 49.4167 45.0763 48.9649 45.506 48.3472C45.9355 47.7305 46.1501 47.048 46.1501 46.2986V3.70163C46.1502 2.95239 45.9351 2.26971 45.5062 1.65277ZM41.9203 45.2736L27.9415 31.8567L25.0002 29.0482L22.0591 31.8567L8.08046 45.2736V4.23048H41.9203V45.2736Z" fill="black"/>
</svg>
