<svg width="40" height="40" viewBox="0 0 40 40" fill="none" xmlns="http://www.w3.org/2000/svg">
<path d="M4.4375 13.8442H35.5625M4.4375 17.3005H35.5625M4.44921 9.28125L33.0625 9.28174C34.4242 9.28174 35.5625 9.28211 35.5625 9.28211V28.2067C35.5625 29.5684 35.5625 30.7067 35.5625 30.7067H4.44964C4.44964 30.7067 4.45 29.5684 4.45 28.2067V12.3317C4.45 10.6893 4.44921 9.28125 4.44921 9.28125Z" stroke="#2C2B2A" stroke-width="2"/>
<path d="M30.0008 23.0059C29.5153 23.0094 29.0447 23.1743 28.6633 23.4746C28.2847 23.1735 27.8158 23.0084 27.332 23.0059C26.7519 23.0059 26.1955 23.2363 25.7852 23.6466C25.375 24.0568 25.1445 24.6132 25.1445 25.1934C25.1445 25.7735 25.375 26.3299 25.7852 26.7402C26.1955 27.1504 26.7519 27.3809 27.332 27.3809C27.8151 27.3807 28.2841 27.2177 28.6633 26.9184C28.9382 27.1328 29.2605 27.2784 29.6031 27.343C29.9457 27.4076 30.2989 27.3894 30.633 27.2898C30.9672 27.1902 31.2727 27.0123 31.5241 26.7707C31.7755 26.5291 31.9656 26.2309 32.0783 25.901C32.1911 25.571 32.2234 25.2189 32.1725 24.874C32.1216 24.529 31.989 24.2013 31.7857 23.918C31.5824 23.6347 31.3143 23.4041 31.0039 23.2455C30.6934 23.0868 30.3495 23.0047 30.0008 23.0059Z" stroke="#2C2B2A" stroke-width="2"/>
</svg>
