<svg width="16" height="16" fill="none" xmlns="http://www.w3.org/2000/svg"><g clip-path="url(#a)"><path d="M5 8.667a3 3 0 1 1 0-6 3 3 0 0 1 0 6Zm5 4.666A3.337 3.337 0 0 0 6.667 10H3.333A3.337 3.337 0 0 0 0 13.333V16h10v-2.667ZM11.667 6a3 3 0 1 1 0-6 3 3 0 0 1 0 6Zm1 1.333H9.333a3.197 3.197 0 0 0-.349.036c-.242.56-.6 1.064-1.05 1.477a4.672 4.672 0 0 1 3.4 4.487H16v-2.666a3.338 3.338 0 0 0-3.333-3.334Z" fill="#AD893C"/></g><defs><clipPath id="a"><path fill="#fff" d="M0 0h16v16H0z"/></clipPath></defs></svg>