<svg width="32" height="33" viewBox="0 0 32 33" fill="none" xmlns="http://www.w3.org/2000/svg"><path d="M31.9431 12.744C31.8315 12.3841 31.4652 11.7805 30.2669 11.7805H21.5625C20.9708 11.7805 20.2655 11.2437 20.0826 10.6543L17.3928 1.98245C17.0225 0.788757 16.3611 0.610596 15.9998 0.610596C15.6386 0.610596 14.9772 0.788881 14.6069 1.98258L11.9171 10.6543C11.7342 11.2437 11.0289 11.7805 10.4373 11.7805H1.733C0.534614 11.7805 0.168412 12.3841 0.0567994 12.744C-0.0548129 13.1038 -0.0973038 13.8179 0.872291 14.5557L7.91428 19.9149C8.39293 20.2793 8.66231 21.1478 8.47945 21.7372L5.78963 30.4088C5.56865 31.1211 5.60286 31.693 5.89118 32.1087C6.11227 32.4276 6.4625 32.6105 6.85201 32.6105C7.22366 32.6103 7.6133 32.4514 8.0433 32.1241L15.0853 26.7647C15.3136 26.591 15.6469 26.4914 16.0001 26.4914C16.353 26.4914 16.6863 26.591 16.9146 26.7647L23.9566 32.1243C24.3868 32.4515 24.7765 32.6106 25.148 32.6106C25.5374 32.6105 25.8875 32.4276 26.1086 32.1087C26.3971 31.6931 26.4312 31.1211 26.2102 30.4091L23.5204 21.7372C23.3375 21.1479 23.6069 20.2793 24.0855 19.915L31.1278 14.5558C32.0973 13.8177 32.0549 13.104 31.9431 12.744Z" fill="#000"/></svg>