<svg width="63" height="12" fill="none" xmlns="http://www.w3.org/2000/svg"><path d="m6.309 0 1.817 4.133 4.492.45-3.37 3.006.96 4.411-3.9-2.275L2.41 12l.959-4.411L0 4.584l4.492-.451L6.309 0Zm16.617 0 1.817 4.133 4.492.45-3.369 3.006.96 4.411-3.9-2.275L19.027 12l.96-4.411-3.37-3.005 4.492-.451L22.927 0Zm16.618 0 1.817 4.133 4.491.45-3.368 3.006.959 4.411-3.9-2.275L35.646 12l.959-4.411-3.37-3.005 4.493-.451L39.544 0Zm16.617 0 1.817 4.133 4.492.45-3.369 3.006.96 4.411-3.9-2.275L52.262 12l.96-4.411-3.37-3.005 4.492-.451L56.161 0Z" fill="#AD893C"/></svg>