<svg width="16" height="16" fill="none" xmlns="http://www.w3.org/2000/svg"><g clip-path="url(#a)"><path d="m15.598 9.412-3.026.82-1.906-1.092V6.86l1.865-1.07 3.067.831.175-.643-2.864-.776.777-2.863-.643-.175-.823 3.037-1.832 1.05-2.054-1.186V2.804L10.57.568l-.472-.471-2.097 2.097L5.903.097 5.432.57l2.236 2.236v2.26L5.613 6.251l-1.831-1.05-.824-3.036-.644.174.777 2.864-2.863.776.174.643 3.067-.831L5.334 6.86v2.247l-1.946 1.115-2.985-.81-.175.643 2.864.777-.777 2.863.643.175.846-3.117 1.863-1.068 2 1.154v2.357l-2.235 2.236.47.471L8 13.806l2.098 2.097.47-.471-2.235-2.236v-2.357l1.971-1.138 1.903 1.092.835 3.077.643-.175-.776-2.863 2.863-.777-.174-.643ZM10 9.107 8 10.26 6 9.107v-2.31l2-1.154 2 1.154v2.31Z" fill="#fff" stroke="#fff" stroke-width=".4"/></g><defs><clipPath id="a"><path fill="#fff" d="M0 0h16v16H0z"/></clipPath></defs></svg>