<svg width="48" height="48" fill="none" xmlns="http://www.w3.org/2000/svg"><g clip-path="url(#a)"><path d="M39 0c-2.684-.17-5.01 1.952-5 4.656V12H18V9c0-4.962-4.038-9-9-9S0 4.038 0 9v30c0 4.962 4.038 9 9 9h30c4.842.102 9.088-4.17 9-9V9c0-4.962-4.038-9-9-9ZM2 9c0-3.86 3.14-7 7-7s7 3.14 7 7v24.412C14.35 31.348 11.842 30 9 30c-2.842 0-5.35 1.35-7 3.412V9Zm0 30c0-3.86 3.14-7 7-7s7 3.14 7 7-3.14 7-7 7-7-3.14-7-7Zm42.406 4.446A6.976 6.976 0 0 1 39 46H14.588C16.652 44.35 18 41.842 18 39V14h16v13.344A4.66 4.66 0 0 0 38.656 32c3.542 0 6.572 2.346 7.206 5.578.41 2.108-.12 4.246-1.456 5.868ZM46 33.374C44.28 31.304 41.606 30 38.656 30A2.66 2.66 0 0 1 36 27.344V4.656C35.99 3.044 37.422 1.85 39 2c3.86 0 7 3.14 7 7v24.374ZM14 39c0-2.758-2.242-5-5-5s-5 2.242-5 5 2.242 5 5 5 5-2.242 5-5Zm-8 0c0-1.654 1.346-3 3-3s3 1.346 3 3-1.346 3-3 3-3-1.346-3-3Z" fill="#AD893C"/></g><defs><clipPath id="a"><path fill="#fff" d="M0 0h48v48H0z"/></clipPath></defs></svg>