<svg width="48" height="48" fill="none" xmlns="http://www.w3.org/2000/svg"><path d="M48 16c0 2.928-1.006 6.126-2.988 9.506a1.002 1.002 0 0 1-1.728-1.012c1.8-3.07 2.714-5.926 2.714-8.494 0-6.28-5.242-12-11-12-4.708 0-7.118 1.854-9.366 3.918l-8.582 8.496c-1.178 1.178-1.398 3.002-.506 4.24a3.165 3.165 0 0 0 2.344 1.336 3.2 3.2 0 0 0 2.508-.92l8.9-8.78a1 1 0 0 1 1.406 1.424l-2.872 2.834 10.634 9.334c1.928 1.69 2.412 4.514 1.126 6.57a5.052 5.052 0 0 1-3.55 2.334c-.47.07-.944.074-1.408.008.26 1.232.074 2.532-.604 3.618a5.054 5.054 0 0 1-3.552 2.334 4.978 4.978 0 0 1-2.044-.122c.08 1.028-.142 2.068-.704 2.962a5.052 5.052 0 0 1-4.284 2.388 5.022 5.022 0 0 1-3.318-1.25l-6.482-5.816C4.79 30.002 0 22.51 0 16 0 8.542 6.076 2 13 2c2.32 0 4.638.752 6.708 2.176a1 1 0 0 1-1.132 1.648C16.842 4.63 14.914 4 13.002 4c-5.756 0-11 5.72-11 12 0 5.83 4.704 13.038 13.982 21.422l6.47 5.806c.662.582 1.55.84 2.436.714a3.014 3.014 0 0 0 2.146-1.416c.772-1.232.45-2.956-.75-4.008l-6.672-6.342a.999.999 0 0 1-.036-1.412.999.999 0 0 1 1.412-.04l7.782 7.346a2.995 2.995 0 0 0 2.416.698 3.021 3.021 0 0 0 2.148-1.416c.77-1.23.448-2.954-.752-4.006l-7.43-6.726a1 1 0 0 1 1.336-1.49l7.822 6.962a3.035 3.035 0 0 0 4.586-.7c.77-1.232.448-2.956-.752-4.006l-10.742-9.43-4.596 4.534a5.201 5.201 0 0 1-4.078 1.496 5.207 5.207 0 0 1-3.806-2.162c-1.458-2.024-1.15-4.958.718-6.826l8.612-8.524C26.73 4.198 29.576 2.002 35 2.002c6.926 0 13 6.542 13 14V16Z" fill="#AD893C"/></svg>