<svg width="48" height="48" fill="none" xmlns="http://www.w3.org/2000/svg"><g clip-path="url(#a)"><path d="M47 42H25v-4h16.52c2.47 0 4.48-1.998 4.48-4.454v-.714c0-6.066-2.448-11.702-6.892-15.872-3.892-3.65-8.83-5.706-14.108-5.938V6h4a1 1 0 0 0 0-2H19a1 1 0 0 0 0 2h4v5.024a17.86 17.86 0 0 0-.462.024C11.022 11.786 2 21.67 2 33.546 2 36.002 4.01 38 6.48 38H23v4H1a1 1 0 0 0 0 2h46a1 1 0 0 0 0-2ZM4 33.546c0-10.826 8.2-19.832 18.666-20.504.442-.028.882-.042 1.318-.044h.034c5.136 0 9.966 1.9 13.722 5.422C41.776 22.206 44 27.324 44 32.832v.714C44 34.898 42.888 36 41.52 36H6.48C5.112 36 4 34.9 4 33.546Z" fill="#AD893C"/></g><defs><clipPath id="a"><path fill="#fff" d="M0 0h48v48H0z"/></clipPath></defs></svg>