<svg width="64" height="64" fill="none" xmlns="http://www.w3.org/2000/svg"><g clip-path="url(#a)"><path d="m54.665 9.373-.944-.946-2.03 2.037c-1.498-2.88-3.21-5.299-5.1-7.2-3.953-3.963-10.588-4.376-15.044-.581A9.48 9.48 0 0 0 20.518 4.42a9.228 9.228 0 0 0-1.795 2.56 11.096 11.096 0 0 0-8.568 3.22c-2.248 2.258-3.405 5.407-3.2 8.596a9.236 9.236 0 0 0-2.554 1.806c-2.92 2.93-3.579 7.421-1.736 11.04-3.728 4.37-3.534 10.978.586 15.112 1.891 1.898 4.302 3.618 7.182 5.125l-1.798 1.803.94.941C15.597 60.672 23.602 64 32.117 64c8.515 0 16.523-3.328 22.547-9.376 12.426-12.475 12.426-32.776 0-45.25ZM5.142 44.875c-3.29-3.304-3.29-8.686-.08-11.918l.973-.944-.602-.909a6.875 6.875 0 0 1 .858-8.621 6.724 6.724 0 0 1 2.544-1.584l1.048-.37-.173-1.097c-.435-2.696.44-5.445 2.339-7.35a8.417 8.417 0 0 1 7.312-2.346l1.101.179.37-1.054c.35-.994.88-1.856 1.58-2.554a6.798 6.798 0 0 1 8.575-.862l1.014.558.773-.854c3.181-3.197 8.744-3.197 11.928 0 1.861 1.87 3.547 4.326 5.008 7.307l-4.36 4.376a14.41 14.41 0 0 0-9.453-3.499c-3.89 0-7.547 1.52-10.296 4.28-3.2 3.211-4.595 7.558-4.187 11.758-6.083-.342-11.003 1.573-11.235 1.664l-1.077.43.277 1.124c.064.262 1.587 6.272 7.99 12.334l-4.952 4.97c-2.97-1.472-5.414-3.157-7.27-5.02l-.005.002Zm14.104-1.84c-4.237-3.998-6.155-7.998-6.89-9.912 1.81-.536 5.48-1.387 9.578-1.038a14.496 14.496 0 0 0 2.89 5.35l-5.578 5.6Zm7.467-7.496c-3.854-4.688-3.595-11.659.773-16.04A11.784 11.784 0 0 1 35.891 16c2.792 0 5.44.963 7.563 2.728L26.71 35.538h.003Zm26.061 17.208c-5.517 5.538-12.85 8.59-20.656 8.59a28.948 28.948 0 0 1-19.696-7.67L53.7 12.227c10.462 11.498 10.155 29.397-.925 40.52ZM49.18 32.453l1.886 1.886-16.728 16.728-1.886-1.886L49.18 32.453Z" fill="#AD893C"/></g><defs><clipPath id="a"><path fill="#fff" d="M0 0h64v64H0z"/></clipPath></defs></svg>