<svg width="64" height="64" fill="none" xmlns="http://www.w3.org/2000/svg"><g clip-path="url(#a)"><path d="M21.333 0c-8.824 0-16 7.176-16 16s7.176 16 16 16 16-7.176 16-16-7.176-16-16-16Zm0 29.333C13.981 29.333 8 23.352 8 16S13.981 2.667 21.333 2.667 34.667 8.648 34.667 16s-5.982 13.333-13.334 13.333Zm10.512 12.264a1.326 1.326 0 0 1-1.8.555A18.72 18.72 0 0 0 21.333 40C11.04 40 2.667 48.373 2.667 58.667v4a1.334 1.334 0 0 1-2.667 0v-4c0-11.763 9.57-21.334 21.333-21.334 3.467 0 6.91.851 9.958 2.462.65.344.901 1.149.554 1.8v.002Zm26.822-.693v-4.901c0-5.147-4.187-9.334-9.334-9.334-5.146 0-9.333 4.187-9.333 9.334v4.901c-3.15 1.501-5.333 4.717-5.333 8.432v5.333c0 5.147 4.186 9.334 9.333 9.334h10.667c5.146 0 9.333-4.187 9.333-9.334v-5.333c0-3.715-2.184-6.93-5.333-8.432Zm-16-4.901a6.676 6.676 0 0 1 6.666-6.667A6.676 6.676 0 0 1 56 36.003v4.096a9.53 9.53 0 0 0-1.333-.096H44a9.15 9.15 0 0 0-1.333.096v-4.096Zm18.666 18.666a6.676 6.676 0 0 1-6.666 6.667H44a6.676 6.676 0 0 1-6.667-6.667v-5.333A6.676 6.676 0 0 1 44 42.669h10.667a6.676 6.676 0 0 1 6.666 6.667v5.333ZM52 52.003a2.668 2.668 0 0 1-5.333 0 2.668 2.668 0 0 1 5.333 0Z" fill="#AD893C"/></g><defs><clipPath id="a"><path fill="#fff" d="M0 0h64v64H0z"/></clipPath></defs></svg>