<svg width="64" height="64" fill="none" xmlns="http://www.w3.org/2000/svg"><g clip-path="url(#a)"><path d="M33.333 13.333A6.674 6.674 0 0 0 40 6.667 6.674 6.674 0 0 0 33.333 0a6.674 6.674 0 0 0-6.666 6.667 6.674 6.674 0 0 0 6.666 6.666Zm0-10.666c2.206 0 4 1.794 4 4 0 2.205-1.794 4-4 4-2.205 0-4-1.795-4-4 0-2.206 1.795-4 4-4ZM50.667 16v13.333h-5.912l-6.056-10.098A6.702 6.702 0 0 0 32.979 16h-7.824C16.747 16 8.05 21.485 8.05 30.667 8.05 37.08 12.155 40 15.97 40c2.442 0 4.224-.97 5.464-2.224a6.629 6.629 0 0 0 2.114 2.645l11.118 8.248V64h2.666V47.33L25.14 38.284a4.017 4.017 0 0 1-1.542-3.976l3.043-15.64h6.339a4 4 0 0 1 1.408.261l-3.582 18.17 2.358 1.534 3.554-17.512L43.245 32h7.422v32h2.666V16h-2.666ZM15.97 37.333c-1.95 0-5.254-1.402-5.254-6.666 0-7.072 6.51-11.464 13.192-11.955L21.12 33.045h-.005c-.038.174-.99 4.286-5.147 4.286l.003.002Zm4.664 6.68 2.032 1.32L19.419 64h-2.723l3.528-20.299c.141.102.267.219.413.315l-.002-.003Z" fill="#AD893C"/></g><defs><clipPath id="a"><path fill="#fff" d="M0 0h64v64H0z"/></clipPath></defs></svg>