<svg width="48" height="48" fill="none" xmlns="http://www.w3.org/2000/svg"><g clip-path="url(#a)"><path d="M40 16c4.412 0 8-3.588 8-8s-3.588-8-8-8-8 3.588-8 8 3.588 8 8 8Zm0-14c3.308 0 6 2.692 6 6s-2.692 6-6 6-6-2.692-6-6 2.692-6 6-6Zm-5 22.016a4.146 4.146 0 0 0-3.806 2.442L22.09 46.49 22 48.002h26v-1.098l-9.196-20.45A4.146 4.146 0 0 0 35 24.016ZM24.508 46l8.504-18.71A2.145 2.145 0 0 1 35 26.016c.876 0 1.622.476 1.986 1.27L45.492 46H24.508Zm-2.516-32.716C21.62 12.478 20.876 12 20 12a2.14 2.14 0 0 0-1.988 1.274L2.534 46H18v2H0l.096-1.526L16.2 12.428A4.144 4.144 0 0 1 20 10c1.654 0 3.114.934 3.804 2.438l4.95 10.476a8.448 8.448 0 0 0-1.202 1.888l-.056.122-5.506-11.642.002.002Z" fill="#AD893C"/></g><defs><clipPath id="a"><path fill="#fff" d="M0 0h48v48H0z"/></clipPath></defs></svg>