<svg width="48" height="48" fill="none" xmlns="http://www.w3.org/2000/svg"><g clip-path="url(#a)"><path d="M24 0a10.39 10.39 0 0 0-7.964 3.708.854.854 0 0 1-.752.31 10.44 10.44 0 0 0-8.254 3.01 10.388 10.388 0 0 0-3.01 8.254.86.86 0 0 1-.31.75 10.394 10.394 0 0 0-3.708 7.966c0 3.076 1.352 5.98 3.708 7.964.226.19.338.458.312.752a10.388 10.388 0 0 0 3.01 8.254 10.366 10.366 0 0 0 8.254 3.01.87.87 0 0 1 .752.31 10.384 10.384 0 0 0 7.964 3.708 10.39 10.39 0 0 0 7.964-3.708.858.858 0 0 1 .752-.31 10.41 10.41 0 0 0 11.264-11.264.86.86 0 0 1 .31-.75A10.394 10.394 0 0 0 48 23.998c0-3.076-1.352-5.98-3.708-7.964a.862.862 0 0 1-.312-.752 10.388 10.388 0 0 0-3.01-8.254 10.348 10.348 0 0 0-8.254-3.01.9.9 0 0 1-.752-.31A10.384 10.384 0 0 0 24 0Zm-8.628 6.024c.85 0 1.638-.366 2.196-1.028A8.392 8.392 0 0 1 24.002 2a8.392 8.392 0 0 1 6.434 2.996 2.83 2.83 0 0 0 2.456 1.016 8.401 8.401 0 0 1 6.668 2.432 8.398 8.398 0 0 1 2.432 6.67c-.08.948.29 1.84 1.018 2.452A8.403 8.403 0 0 1 46.004 24a8.402 8.402 0 0 1-2.996 6.436 2.85 2.85 0 0 0-1.016 2.452 8.399 8.399 0 0 1-2.432 6.67 8.415 8.415 0 0 1-6.668 2.432 2.844 2.844 0 0 0-2.456 1.016 8.392 8.392 0 0 1-6.434 2.996 8.392 8.392 0 0 1-6.434-2.996 2.88 2.88 0 0 0-2.456-1.016 8.383 8.383 0 0 1-6.668-2.432 8.399 8.399 0 0 1-2.432-6.67c.08-.948-.29-1.84-1.018-2.452A8.403 8.403 0 0 1 2 24.002a8.402 8.402 0 0 1 2.996-6.436 2.85 2.85 0 0 0 1.016-2.452 8.398 8.398 0 0 1 2.432-6.67 8.437 8.437 0 0 1 6.668-2.432c.088.008.174.012.26.012ZM18 32a2 2 0 1 1 .001-4.002A2 2 0 0 1 18 32Zm12-12a2 2 0 1 1 .001-4.002A2 2 0 0 1 30 20Zm-10.168-4.554 10 15a.999.999 0 1 1-1.664 1.108l-10-15a.999.999 0 1 1 1.664-1.108Z" fill="#AD893C"/></g><defs><clipPath id="a"><path fill="#fff" transform="matrix(1 0 0 -1 0 48)" d="M0 0h48v48H0z"/></clipPath></defs></svg>