<svg width="32" height="32" fill="none" xmlns="http://www.w3.org/2000/svg"><g clip-path="url(#a)"><path d="M32 6v10.667a.667.667 0 0 1-1.333 0V6A4.672 4.672 0 0 0 26 1.333H6A4.672 4.672 0 0 0 1.333 6v10.667a.667.667 0 0 1-1.333 0V6c0-3.308 2.692-6 6-6h20c3.308 0 6 2.692 6 6Zm-5.667 19.333c-2.178 0-4.052 1.25-5 3.058-.948-1.808-2.821-3.058-5-3.058h-.666c-2.179 0-4.052 1.25-5 3.058-.948-1.808-2.822-3.058-5-3.058A5.673 5.673 0 0 0 0 31v.333a.667.667 0 0 0 1.333 0V31a4.338 4.338 0 0 1 4.334-4.333A4.338 4.338 0 0 1 10 31v.333a.667.667 0 0 0 1.333 0V31a4.338 4.338 0 0 1 4.334-4.333h.666A4.338 4.338 0 0 1 20.667 31v.333a.667.667 0 0 0 1.333 0V31a4.338 4.338 0 0 1 4.333-4.333A4.338 4.338 0 0 1 30.667 31v.333a.667.667 0 0 0 1.333 0V31a5.673 5.673 0 0 0-5.667-5.667Zm0-1.333A3.337 3.337 0 0 1 23 20.667a3.337 3.337 0 0 1 3.333-3.334 3.337 3.337 0 0 1 3.334 3.334A3.337 3.337 0 0 1 26.333 24Zm0-1.333c1.103 0 2-.898 2-2 0-1.103-.897-2-2-2-1.102 0-2 .897-2 2 0 1.102.898 2 2 2ZM16 24a3.337 3.337 0 0 1-3.333-3.333A3.337 3.337 0 0 1 16 17.333a3.337 3.337 0 0 1 3.333 3.334A3.337 3.337 0 0 1 16 24Zm0-1.333c1.103 0 2-.898 2-2 0-1.103-.897-2-2-2s-2 .897-2 2c0 1.102.897 2 2 2ZM5.667 24a3.337 3.337 0 0 1-3.334-3.333 3.337 3.337 0 0 1 3.334-3.334A3.337 3.337 0 0 1 9 20.667 3.337 3.337 0 0 1 5.667 24Zm0-1.333c1.102 0 2-.898 2-2 0-1.103-.898-2-2-2-1.103 0-2 .897-2 2 0 1.102.897 2 2 2Z" fill="#AD893C"/></g><defs><clipPath id="a"><path fill="#fff" d="M0 0h32v32H0z"/></clipPath></defs></svg>