<svg width="32" height="32" fill="none" xmlns="http://www.w3.org/2000/svg"><g clip-path="url(#a)"><path d="M31.905 8.324a.668.668 0 0 0-.914-.228c-.043.025-4.03 2.375-6.674.53l4.82-4.82a.667.667 0 0 0-.942-.942l-4.82 4.82c-1.836-2.636.504-6.63.53-6.673a.668.668 0 0 0-1.143-.687c-.098.163-1.763 2.992-1.38 5.805-2.427-2.076-5.088-3.306-7.989-.406C10.823 8.292 2.028 24.608.332 27.863a2.775 2.775 0 0 0 .504 3.3A2.78 2.78 0 0 0 2.814 32c.444 0 .896-.108 1.322-.33 7.333-3.825 19.83-10.753 22.142-13.063 2.902-2.902 1.67-5.562-.405-7.988.288.038.578.057.863.056 2.501 0 4.796-1.35 4.94-1.438a.667.667 0 0 0 .23-.914Zm-6.569 9.34c-.688.688-2.442 1.872-4.766 3.297l-3.433-3.432a.667.667 0 0 0-.942.943l3.2 3.201C14.72 24.477 8.332 27.98 3.517 30.488c-.71.375-1.365.107-1.74-.267-.374-.373-.638-1.026-.265-1.741A380.444 380.444 0 0 1 7.39 17.665l3.472 3.472a.67.67 0 0 0 .944 0 .667.667 0 0 0 0-.942l-3.73-3.731c1.584-2.772 3.097-5.308 4.3-7.148l3.821 3.821a.67.67 0 0 0 .944 0 .667.667 0 0 0 0-.942l-4.005-4.006c.485-.693.895-1.217 1.203-1.525.916-.916 1.773-1.315 2.634-1.315 1.739 0 3.49 1.628 5.772 3.908 3.41 3.41 5.358 5.642 2.592 8.407Z" fill="#AD893C"/></g><defs><clipPath id="a"><path fill="#fff" d="M0 0h32v32H0z"/></clipPath></defs></svg>