<svg width="32" height="32" fill="none" xmlns="http://www.w3.org/2000/svg"><g clip-path="url(#a)"><path d="M8.59 5.44 5.738.756 6.876.064l2.853 4.684-1.139.692ZM26.666 16c0 3.097-1.346 6.037-3.694 8.068a4.678 4.678 0 0 0-1.639 3.537V32H10.666v-4.393c0-1.343-.608-2.643-1.669-3.567-2.75-2.395-4.077-5.996-3.548-9.636.683-4.695 4.61-8.48 9.337-9.004 3.076-.341 6.036.6 8.327 2.65a10.687 10.687 0 0 1 3.553 7.949V16ZM20 27.605c0-.318.053-.628.102-.938h-8.208c.051.31.104.622.104.94v3.06h8v-3.062H20ZM25.333 16a9.35 9.35 0 0 0-3.11-6.956c-2.002-1.792-4.583-2.619-7.291-2.317-4.134.457-7.567 3.766-8.163 7.87-.464 3.188.696 6.343 3.103 8.438a6.2 6.2 0 0 1 1.645 2.298h3.815v-7.4a3.338 3.338 0 0 1-2.667-3.266h1.333c0 1.102.898 2 2 2 1.103 0 2-.898 2-2h1.334a3.337 3.337 0 0 1-2.667 3.265v7.401h3.808a6.058 6.058 0 0 1 1.624-2.274A9.325 9.325 0 0 0 25.333 16ZM26.261.756 25.122.063 22.27 4.747l1.139.693L26.26.756Zm5.147 5.79-4.715 2.129.55 1.216 4.714-2.13-.55-1.216ZM.04 7.76l4.715 2.13.549-1.216L.59 6.545.041 7.761Z" fill="#AD893C"/></g><defs><clipPath id="a"><path fill="#fff" d="M0 0h32v32H0z"/></clipPath></defs></svg>