<svg width="32" height="32" fill="none" xmlns="http://www.w3.org/2000/svg"><g clip-path="url(#a)"><path d="M28.667 0H3.333A3.337 3.337 0 0 0 0 3.333v11.334h32V3.333A3.337 3.337 0 0 0 28.667 0Zm2 13.333H1.333v-10c0-1.102.898-2 2-2h25.334c1.102 0 2 .898 2 2v10ZM4 8h24v1.333H4V8Zm5.333 9.333h1.334v10A4.672 4.672 0 0 1 6 32a4.672 4.672 0 0 1-4.667-4.667A4.672 4.672 0 0 1 6 22.667V24a3.337 3.337 0 0 0-3.333 3.333A3.337 3.337 0 0 0 6 30.667a3.337 3.337 0 0 0 3.333-3.334v-10Zm21.334 10A4.672 4.672 0 0 1 26 32a4.672 4.672 0 0 1-4.667-4.667v-10h1.334v10A3.337 3.337 0 0 0 26 30.667a3.337 3.337 0 0 0 3.333-3.334A3.337 3.337 0 0 0 26 24v-1.333a4.672 4.672 0 0 1 4.667 4.666Zm-15.334-10h1.334V32h-1.334V17.333Z" fill="#AD893C"/></g><defs><clipPath id="a"><path fill="#fff" d="M0 0h32v32H0z"/></clipPath></defs></svg>