<svg width="32" height="32" fill="none" xmlns="http://www.w3.org/2000/svg"><g clip-path="url(#a)"><path d="M32 14.667V16h-8c0-4.412-3.588-8-8-8s-8 3.588-8 8H0v-1.333h6.763a9.302 9.302 0 0 1 1.133-3.294l-6.048-3.52.67-1.15 6.123 3.564a9.396 9.396 0 0 1 2.41-2.175L7.41 1.833l1.152-.669 3.664 6.3a9.248 9.248 0 0 1 3.106-.773V0h1.334v6.69a9.253 9.253 0 0 1 3.124.782l3.668-6.308 1.153.67L20.967 8.1a9.39 9.39 0 0 1 2.398 2.174L29.503 6.7l.672 1.151-6.066 3.53a9.274 9.274 0 0 1 1.128 3.283H32v.002Zm-2 8c-2.205 0-4-1.795-4-4h-1.333c0 2.205-1.795 4-4 4-2.206 0-4-1.795-4-4h-1.334c0 2.205-1.794 4-4 4-2.205 0-4-1.795-4-4H6a4.005 4.005 0 0 1-5.472 3.721l-.49 1.24a5.339 5.339 0 0 0 6.628-2.381A5.336 5.336 0 0 0 11.334 24 5.339 5.339 0 0 0 16 21.247 5.335 5.335 0 0 0 20.667 24a5.337 5.337 0 0 0 4.666-2.753 5.337 5.337 0 0 0 6.639 2.377l-.492-1.24a3.98 3.98 0 0 1-1.48.283Zm0 8c-2.205 0-4-1.795-4-4h-1.333c0 2.205-1.795 4-4 4-2.206 0-4-1.795-4-4h-1.334c0 2.205-1.794 4-4 4-2.205 0-4-1.795-4-4H6a4.005 4.005 0 0 1-5.476 3.718l-.493 1.24a5.339 5.339 0 0 0 6.636-2.379A5.336 5.336 0 0 0 11.333 32 5.339 5.339 0 0 0 16 29.247 5.335 5.335 0 0 0 20.667 32a5.337 5.337 0 0 0 4.666-2.753 5.337 5.337 0 0 0 6.638 2.378l-.495-1.24a3.968 3.968 0 0 1-1.476.282Z" fill="#AD893C"/></g><defs><clipPath id="a"><path fill="#fff" d="M0 0h32v32H0z"/></clipPath></defs></svg>