<svg width="32" height="32" fill="none" xmlns="http://www.w3.org/2000/svg"><g clip-path="url(#a)"><path d="M22.343 22.153c-1.275.766-2.586 1.548-4.343 1.902V22.68c1.408-.333 2.515-.985 3.657-1.672 1.108-.665 2.246-1.34 3.676-1.738v1.396c-1.102.361-2.033.913-2.99 1.486Zm-1.01-2.5c.419-.249.858-.502 1.334-.745v-6.313c-.419.249-.863.497-1.334.738v6.32Zm-4.666-14.35V0h-1.334v5.303c.215.017.434.03.667.03.233 0 .452-.013.667-.03Zm8.666 3.365c-1.43.399-2.568 1.073-3.676 1.739-1.142.686-2.249 1.337-3.657 1.672v1.373c1.757-.353 3.067-1.136 4.343-1.901.957-.575 1.888-1.124 2.99-1.486V8.668ZM8 4.972v-1.47a9.646 9.646 0 0 0-4-.835H0V4h4c1.648 0 2.879.41 4 .972ZM5.333 0H4v1.333c.457 0 .899.031 1.333.08V0Zm5.334 0H9.333v7.993c.475.243.915.496 1.334.746V0ZM20 7.164v-1.47c-1.121.562-2.352.973-4 .973-1.648 0-2.879-.411-4-.972v1.469A9.646 9.646 0 0 0 16 8c1.621 0 2.888-.35 4-.836Zm0 9.197c-1.121.562-2.352.972-4 .972-1.648 0-2.879-.41-4-.972v1.47a9.647 9.647 0 0 0 4 .836c1.621 0 2.888-.35 4-.836v-1.47ZM22.667 0h-1.334v8.739c.419-.25.859-.502 1.334-.746V0Zm-6 15.97V9.3c-.22.012-.435.031-.667.031-.232 0-.447-.019-.667-.03v6.667c.215.018.434.031.667.031.233 0 .452-.013.667-.03ZM4 12c.457 0 .899.03 1.333.08V5.461A7.295 7.295 0 0 0 4 5.333V12ZM28 0h-1.333v1.413c.434-.049.876-.08 1.333-.08V0ZM15.333 19.97v6.667c.215.018.434.031.667.031a7.6 7.6 0 0 0 .667-.03v-6.669c-.22.012-.435.031-.667.031-.232 0-.447-.019-.667-.03Zm-8.666.698c1.102.361 2.033.912 2.99 1.485 1.275.766 2.586 1.548 4.343 1.902V22.68c-1.408-.333-2.515-.985-3.657-1.672-1.108-.665-2.246-1.34-3.676-1.738v1.398Zm4-7.333c-.471-.242-.915-.49-1.334-.739v6.065c.476.243.915.496 1.334.746v-6.072Zm3.333.117v-1.373c-1.408-.334-2.515-.986-3.657-1.672-1.108-.666-2.246-1.34-3.676-1.739v1.396c1.102.361 2.033.912 2.99 1.485 1.275.766 2.586 1.55 4.343 1.903Zm-4.667 18.55h1.334v-8a24.04 24.04 0 0 1-1.334-.74v8.74Zm20-12H32v-1.334h-2.667v1.333Zm-1.333-4a7.5 7.5 0 0 0-1.333.117v6.629c.422-.048.861-.08 1.333-.08v-6.667Zm-4-1.831v1.469c1.121-.561 2.352-.972 4-.972h4v-1.333h-4a9.642 9.642 0 0 0-4 .836Zm0 10.666v1.47c1.121-.562 2.352-.972 4-.972h4V24h-4c-1.621 0-2.888.35-4 .836Zm2.667 7.164H28v-5.333a7.51 7.51 0 0 0-1.333.117v5.216ZM28 5.335c-.47 0-.904.049-1.333.128v6.618c.422-.048.861-.08 1.333-.08V5.335Zm0-2.667c-1.621 0-2.888.35-4 .836v1.47C25.121 4.411 26.352 4 28 4h4V2.668h-4Zm1.333 6.667H32V8h-2.667v1.334ZM4 32h1.333v-5.205A7.292 7.292 0 0 0 4 26.667V32Zm0-9.333c.457 0 .899.03 1.333.08v-6.619A7.292 7.292 0 0 0 4 16v6.667ZM21.333 32h1.334v-8.49c-.42.25-.864.498-1.334.74V32ZM2.667 18.667H0V20h2.667v-1.333ZM8 15.639v-1.47a9.647 9.647 0 0 0-4-.836H0v1.334h4c1.648 0 2.879.41 4 .972ZM2.667 8H0v1.333h2.667V8ZM12 27.028v1.47a9.646 9.646 0 0 0 4 .835 9.642 9.642 0 0 0 4-.836v-1.469c-1.121.561-2.352.972-4 .972-1.648 0-2.879-.412-4-.972ZM0 24v1.333h4c1.648 0 2.879.411 4 .972v-1.469A9.646 9.646 0 0 0 4 24H0Zm15.333 6.636V32h1.334v-1.364c-.22.012-.435.03-.667.03-.232 0-.447-.018-.667-.03Z" fill="#AD893C"/></g><defs><clipPath id="a"><path fill="#fff" d="M0 0h32v32H0z"/></clipPath></defs></svg>