<svg width="32" height="32" fill="none" xmlns="http://www.w3.org/2000/svg"><g clip-path="url(#a)"><path d="M28.667 12A3.338 3.338 0 0 0 32 8.667a3.338 3.338 0 0 0-3.333-3.334 3.338 3.338 0 0 0-3.334 3.334A3.338 3.338 0 0 0 28.667 12Zm0-5.333c1.102 0 2 .897 2 2 0 1.102-.898 2-2 2-1.103 0-2-.898-2-2 0-1.103.897-2 2-2Zm0 6.666a3.338 3.338 0 0 0-3.334 3.334V24h-4v8h1.334v-6.667h6A3.338 3.338 0 0 0 32 22v-5.333a3.338 3.338 0 0 0-3.333-3.334Zm2 8.667c0 1.103-.898 2-2 2h-2v-7.333c0-1.103.897-2 2-2 1.102 0 2 .897 2 2V22Zm-8-3.333H9.333v-1.334h13.334v1.334Zm-7.574-6.344c.26.23.587.345.912.345.319 0 .636-.11.884-.33l2.018-1.671h3.76V2c0-1.103-.898-2-2-2h-9.334c-1.102 0-2 .897-2 2v8.667h3.76l2 1.656ZM10.667 2c0-.368.298-.667.666-.667h9.334c.368 0 .666.299.666.667v7.333h-2.906L15.96 11.31l-2.388-1.976h-2.906V2Zm14.666 26H32v1.333h-5.333V32h-1.334v-4Zm-22-16a3.338 3.338 0 0 0 3.334-3.333 3.338 3.338 0 0 0-3.334-3.334A3.338 3.338 0 0 0 0 8.667 3.338 3.338 0 0 0 3.333 12Zm0-5.333c1.103 0 2 .897 2 2 0 1.102-.897 2-2 2-1.102 0-2-.898-2-2 0-1.103.898-2 2-2Zm3.334 10a3.338 3.338 0 0 0-3.334-3.334A3.338 3.338 0 0 0 0 16.667V22a3.338 3.338 0 0 0 3.333 3.333h6V32h1.334v-8h-4v-7.333ZM3.333 24c-1.102 0-2-.897-2-2v-5.333c0-1.103.898-2 2-2 1.103 0 2 .897 2 2V24h-2ZM0 28h6.667v4H5.333v-2.667H0V28Z" fill="#AD893C"/></g><defs><clipPath id="a"><path fill="#fff" d="M0 0h32v32H0z"/></clipPath></defs></svg>