<svg width="32" height="32" fill="none" xmlns="http://www.w3.org/2000/svg"><g clip-path="url(#a)"><path d="M16.673 25.31c4.838-.342 8.667-4.389 8.666-9.366L23.952 0H8.062l-1.39 16.001c0 4.923 3.83 8.966 8.667 9.31l-.005 5.358H9.333v1.334h13.334v-1.334h-5.999l.005-5.358ZM22.73 1.334l.466 5.334H8.82l.464-5.334H22.73ZM8.004 16.06l.7-8.06h14.605l.698 8.001c0 4.412-3.588 8-8 8s-8-3.588-8.003-7.942Z" fill="#AD893C"/></g><defs><clipPath id="a"><path fill="#fff" d="M0 0h32v32H0z"/></clipPath></defs></svg>