<svg width="33" height="32" fill="none" xmlns="http://www.w3.org/2000/svg"><g clip-path="url(#a)"><path d="M26.5 2.667h-20c-3.308 0-6 2.692-6 6v20a.667.667 0 0 0 1.333 0v-3.334h29.334v3.334a.667.667 0 0 0 1.333 0v-20c0-3.308-2.692-6-6-6ZM6.5 4h20a4.672 4.672 0 0 1 4.667 4.667v10H28.5v-2A4.672 4.672 0 0 0 23.833 12H20.5a4.67 4.67 0 0 0-4 2.265 4.669 4.669 0 0 0-4-2.265H9.167A4.672 4.672 0 0 0 4.5 16.667v2H1.833v-10A4.672 4.672 0 0 1 6.5 4Zm10.667 14.667v-2a3.337 3.337 0 0 1 3.333-3.334h3.333a3.337 3.337 0 0 1 3.334 3.334v2h-10Zm-11.334 0v-2a3.338 3.338 0 0 1 3.334-3.334H12.5a3.338 3.338 0 0 1 3.333 3.334v2h-10Zm-4 5.333v-4h29.334v4H1.833Z" fill="#AD893C"/></g><defs><clipPath id="a"><path fill="#fff" transform="translate(.5)" d="M0 0h32v32H0z"/></clipPath></defs></svg>