<svg width="32" height="32" fill="none" xmlns="http://www.w3.org/2000/svg"><path d="M28.545 29.333c-1.653 0-3.245-.792-4.181-1.992-.938 1.2-2.53 1.992-4.182 1.992-1.652 0-3.245-.792-4.182-1.992-.936 1.2-2.528 1.992-4.182 1.992-1.653 0-3.245-.792-4.181-1.992-.937 1.2-2.53 1.992-4.181 1.992a4.946 4.946 0 0 1-3.223-1.182.668.668 0 0 1-.072-.94.67.67 0 0 1 .94-.072 3.607 3.607 0 0 0 2.355.86c1.557 0 3.086-.958 3.556-2.23.194-.524 1.057-.524 1.25 0 .47 1.272 1.999 2.23 3.556 2.23 1.558 0 3.087-.958 3.556-2.23.195-.524 1.058-.524 1.25 0 .47 1.272 2 2.23 3.557 2.23s3.087-.958 3.556-2.23a.667.667 0 0 1 1.25 0c.47 1.272 2 2.23 3.557 2.23a3.6 3.6 0 0 0 2.353-.86.667.667 0 0 1 .87 1.01 4.933 4.933 0 0 1-3.222 1.184Zm3.223-9.184a.667.667 0 0 0-.87-1.01 3.608 3.608 0 0 1-2.353.86c-1.557 0-3.087-.958-3.556-2.23a.667.667 0 0 0-1.25 0c-.47 1.272-2 2.23-3.557 2.23s-3.086-.958-3.556-2.23c-.194-.524-1.057-.524-1.25 0-.47 1.272-2 2.23-3.556 2.23-1.558 0-3.087-.958-3.556-2.23-.195-.524-1.058-.524-1.251 0C6.543 19.041 5.014 20 3.457 20a3.607 3.607 0 0 1-2.355-.86.667.667 0 0 0-.868 1.012 4.942 4.942 0 0 0 3.223 1.182c1.652 0 3.245-.792 4.181-1.992.938 1.2 2.53 1.992 4.182 1.992 1.652 0 3.245-.792 4.18-1.992.938 1.2 2.53 1.992 4.184 1.992 1.653 0 3.245-.792 4.18-1.992.937 1.2 2.529 1.992 4.182 1.992 1.19 0 2.334-.42 3.222-1.184Zm0-8a.667.667 0 0 0-.87-1.01 3.608 3.608 0 0 1-2.353.86c-1.557 0-3.087-.958-3.556-2.23a.667.667 0 0 0-1.25 0c-.47 1.272-2 2.23-3.557 2.23s-3.086-.958-3.556-2.23c-.194-.524-1.057-.524-1.25 0-.47 1.272-2 2.23-3.556 2.23-1.558 0-3.087-.958-3.556-2.23-.195-.524-1.058-.524-1.251 0C6.543 11.041 5.014 12 3.457 12a3.607 3.607 0 0 1-2.355-.86.667.667 0 0 0-.868 1.012 4.942 4.942 0 0 0 3.223 1.182c1.652 0 3.245-.792 4.181-1.992.938 1.2 2.53 1.992 4.182 1.992 1.652 0 3.245-.792 4.18-1.992.938 1.2 2.53 1.992 4.184 1.992 1.653 0 3.245-.792 4.18-1.992.937 1.2 2.529 1.992 4.182 1.992 1.19 0 2.334-.42 3.222-1.184Zm0-8a.667.667 0 0 0-.87-1.01 3.608 3.608 0 0 1-2.353.86c-1.557 0-3.087-.958-3.556-2.23a.667.667 0 0 0-1.25 0c-.47 1.272-2 2.23-3.557 2.23s-3.086-.958-3.556-2.23c-.194-.524-1.057-.524-1.25 0-.47 1.272-2 2.23-3.556 2.23-1.558 0-3.087-.958-3.556-2.23-.195-.524-1.058-.524-1.251 0C6.543 3.041 5.014 4 3.457 4a3.607 3.607 0 0 1-2.355-.86.666.666 0 1 0-.868 1.012 4.943 4.943 0 0 0 3.223 1.182c1.652 0 3.245-.792 4.181-1.992.938 1.2 2.53 1.992 4.182 1.992 1.652 0 3.245-.792 4.18-1.992.938 1.2 2.53 1.992 4.184 1.992 1.653 0 3.245-.792 4.18-1.992.937 1.2 2.529 1.992 4.182 1.992 1.19 0 2.334-.42 3.222-1.184Z" fill="#AD893C"/></svg>