<svg width="32" height="32" fill="none" xmlns="http://www.w3.org/2000/svg"><g clip-path="url(#a)"><path d="M16.667 6.667A3.337 3.337 0 0 0 20 3.333 3.337 3.337 0 0 0 16.667 0a3.337 3.337 0 0 0-3.334 3.333 3.337 3.337 0 0 0 3.334 3.334Zm0-5.334c1.102 0 2 .898 2 2 0 1.103-.898 2-2 2-1.103 0-2-.897-2-2 0-1.102.897-2 2-2ZM25.333 8v6.667h-2.956l-3.028-5.05A3.35 3.35 0 0 0 16.49 8h-3.912c-4.204 0-8.552 2.743-8.552 7.333C4.025 18.54 6.077 20 7.985 20c1.222 0 2.112-.485 2.732-1.112.23.516.588.976 1.058 1.323l5.558 4.124V32h1.334v-8.335l-6.098-4.524a2.008 2.008 0 0 1-.77-1.988l1.521-7.82h3.17c.242 0 .48.047.703.131l-1.79 9.085 1.178.767 1.778-8.756L21.623 16h3.71v16h1.334V8h-1.334ZM7.985 18.667c-.974 0-2.626-.702-2.626-3.334 0-3.536 3.254-5.732 6.596-5.977l-1.395 7.167h-.003c-.018.086-.494 2.142-2.573 2.142l.001.002Zm2.332 3.34 1.016.66L9.71 32H8.35l1.763-10.15c.07.051.133.11.207.158l-.002-.001Z" fill="#AD893C"/></g><defs><clipPath id="a"><path fill="#fff" d="M0 0h32v32H0z"/></clipPath></defs></svg>