<svg width="32" height="32" fill="none" xmlns="http://www.w3.org/2000/svg"><path d="M31.333 12c-3.372 0-6.504 1.093-9.086 2.957-.242-4.472-2.268-8.809-5.775-12.317L16 2.168l-.472.472c-3.508 3.507-5.533 7.845-5.775 12.317C7.171 13.095 4.04 12 .667 12H0v.667c0 8.957 6.819 16.285 15.333 16.65v.016h1.334v-.016C25.18 28.952 32 21.624 32 12.667V12h-.667Zm-20.27 3.995C11.027 11.72 12.775 7.51 16 4.07c3.225 3.44 4.973 7.65 4.937 11.924h.016A16.79 16.79 0 0 0 16 23.904a16.783 16.783 0 0 0-4.953-7.91h.016Zm-9.715-2.646c7.556.363 13.639 6.731 13.972 14.635-7.556-.363-13.639-6.73-13.972-14.635Zm15.333 14.635c.334-7.904 6.415-14.272 13.972-14.635-.333 7.904-6.414 14.272-13.972 14.635Z" fill="#AD893C"/></svg>