<svg width="32" height="32" fill="none" xmlns="http://www.w3.org/2000/svg"><g clip-path="url(#a)"><path d="M16.667 32c-.071.025.18 0 0 0Zm0 0C6.667 32 0 24.823 0 16S7.177 0 16 0s16 7.177 16 16c0 9.333-7.333 16-15.333 16Zm5.24-26.667h-1.24c-1.103 0-2 .898-2 2v1.334c0 1.102-.898 2-2 2-1.103 0-2 .897-2 2V14c0 1.103.897 2 2 2h4A3.336 3.336 0 0 1 24 19.333V20c0 .141.073 3.435 3.365 5.255A14.591 14.591 0 0 0 30.667 16c0-4.921-2.444-9.273-6.174-11.935a3.31 3.31 0 0 1-2.586 1.268Zm-5.907 18c0-1.102-.897-2-2-2H9.656a4.704 4.704 0 0 1-3.3-1.366l-4.972-4.972c-.023.333-.05.666-.05 1.006 0 8.087 6.58 14.667 14.666 14.667v-7.335Zm10.453 2.936c-3.733-2.234-3.786-6.098-3.786-6.269v-.667c0-1.102-.898-2-2-2h-4A3.337 3.337 0 0 1 13.333 14v-1.333a3.337 3.337 0 0 1 3.334-3.334.668.668 0 0 0 .666-.666V7.333A3.337 3.337 0 0 1 20.667 4h1.24c.566 0 1.089-.248 1.465-.66a14.557 14.557 0 0 0-7.37-2.007C8.83 1.333 2.856 6.507 1.59 13.315l5.708 5.708a3.353 3.353 0 0 0 2.357.976H14a3.336 3.336 0 0 1 3.333 3.333v7.265a14.618 14.618 0 0 0 9.12-4.328Z" fill="#AD893C"/></g><defs><clipPath id="a"><path fill="#fff" d="M0 0h32v32H0z"/></clipPath></defs></svg>