<svg width="32" height="32" fill="none" xmlns="http://www.w3.org/2000/svg"><g clip-path="url(#a)"><path d="M14.667 0H16v12.667A3.336 3.336 0 0 1 12.667 16h-2v16H9.333V16h-2A3.336 3.336 0 0 1 4 12.667V0h1.333v12.667c0 1.102.898 2 2 2h2V0h1.334v14.667h2c1.102 0 2-.898 2-2V0ZM28 11.69c0 6.289-5.527 12.409-6.667 13.603V32H20V2A1.97 1.97 0 0 1 21.368.103a1.984 1.984 0 0 1 2.243.712C25.613 3.5 28 7.567 28 11.688v.001Zm-6.667 11.593c1.858-2.203 5.334-6.948 5.334-11.594 0-3.754-2.244-7.553-4.127-10.078a.634.634 0 0 0-.528-.278.764.764 0 0 0-.227.036.645.645 0 0 0-.453.632v21.282h.001Z" fill="#AD893C"/></g><defs><clipPath id="a"><path fill="#fff" d="M0 0h32v32H0z"/></clipPath></defs></svg>