<svg width="16" height="16" fill="none" xmlns="http://www.w3.org/2000/svg"><g clip-path="url(#a)"><path d="M5 8H3.667c-.552 0-1 .449-1 1v1.333a1 1 0 0 0 1 1H5c.551 0 1-.448 1-1V9c0-.551-.449-1-1-1Zm.333 2.333c0 .184-.15.334-.333.334H3.667a.334.334 0 0 1-.334-.334V9c0-.184.15-.333.334-.333H5c.183 0 .333.149.333.333v1.333Zm7.667-9h-1v-1a.333.333 0 0 0-.667 0v1H4.667v-1a.333.333 0 0 0-.667 0v1H3c-1.654 0-3 1.346-3 3V13c0 1.654 1.346 3 3 3h10c1.654 0 3-1.346 3-3V4.333c0-1.654-1.346-3-3-3ZM3 2h10a2.336 2.336 0 0 1 2.333 2.333v1H.667v-1A2.336 2.336 0 0 1 3 2Zm10 13.333H3A2.336 2.336 0 0 1 .667 13V6h14.666v7A2.336 2.336 0 0 1 13 15.333Z" fill="#AD893C"/></g><defs><clipPath id="a"><path fill="#fff" d="M0 0h16v16H0z"/></clipPath></defs></svg>