<svg width="40" height="40" viewBox="0 0 40 40" fill="none" xmlns="http://www.w3.org/2000/svg">
<path d="M33.3506 25.7567V33.838C33.3506 33.838 32.7814 33.838 32.1006 33.838H3.97461C3.97461 33.838 3.97558 33.2688 3.97558 32.588V11.9629C3.97558 11.9629 4.54474 11.963 5.22558 11.963H33.3506C33.3506 11.963 33.3506 12.5321 33.3506 13.213V18.7942" stroke="#2C2B2A" stroke-width="2" stroke-linecap="round"/>
<path d="M35.4047 18.793L24.7735 18.7931L24.7734 19.4117V25.1367C24.7734 25.4784 24.7749 25.7555 24.7749 25.7555H36.0234V25.1367V18.7931L35.4047 18.793Z" stroke="#2C2B2A" stroke-width="2" stroke-linecap="round"/>
<path d="M5.08789 11.9626L27.1504 5.625C27.1504 5.625 27.1348 6.53616 27.1504 7.21256L27.3191 11.5876M28.5816 22.2751H28.9129" stroke="#2C2B2A" stroke-width="2" stroke-linecap="round"/>
</svg>
