<svg width="50" height="50" viewBox="0 0 50 50" fill="none" xmlns="http://www.w3.org/2000/svg">
<path d="M46.4564 7.03136C44.0938 4.7244 40.8297 3.57141 36.6626 3.57141C35.5094 3.57141 34.3325 3.77136 33.133 4.17107C31.933 4.57107 30.8167 5.11072 29.7852 5.78963C28.7524 6.46835 27.8649 7.10573 27.1203 7.7008C26.3791 8.29371 25.6713 8.92711 25 9.59808C24.3286 8.92715 23.6207 8.29376 22.8795 7.7008C22.1352 7.10573 21.2473 6.46874 20.2147 5.78963C19.1823 5.11043 18.0661 4.57116 16.8664 4.17107C15.6668 3.77146 14.4901 3.57141 13.3369 3.57141C9.17008 3.57141 5.90578 4.72469 3.54351 7.03136C1.18123 9.33783 0 12.537 0 16.6293C0 17.8756 0.21891 19.1596 0.65585 20.4796C1.09279 21.8003 1.59071 22.9258 2.14864 23.8557C2.70647 24.7854 3.33906 25.6922 4.04592 26.5758C4.75279 27.4594 5.26938 28.0683 5.59452 28.4031C5.91995 28.7379 6.1758 28.98 6.36178 29.1289L23.7722 45.9259C24.1072 46.2607 24.5163 46.4286 24.9999 46.4286C25.4835 46.4286 25.8929 46.2607 26.2277 45.9259L43.6105 29.1842C47.8702 24.9252 49.9999 20.7399 49.9999 16.6289C50 12.5364 48.8189 9.33744 46.4564 7.03136ZM41.1829 26.5618L25 42.1588L8.78943 26.5337C5.31091 23.0561 3.57194 19.7539 3.57194 16.6289C3.57194 15.1224 3.7719 13.7923 4.1716 12.6393C4.5716 11.4861 5.08311 10.5697 5.70622 9.89077C6.32943 9.21166 7.08731 8.65872 7.98015 8.23058C8.87347 7.80282 9.74765 7.51443 10.6032 7.36569C11.4587 7.21714 12.37 7.14277 13.3374 7.14277C14.3045 7.14277 15.3464 7.37966 16.4624 7.85413C17.5783 8.3284 18.606 8.92366 19.5452 9.63971C20.4847 10.3563 21.2892 11.0258 21.9591 11.6487C22.6286 12.2722 23.1865 12.8438 23.633 13.3647C23.9676 13.7741 24.4237 13.9787 25.0001 13.9787C25.5767 13.9787 26.0323 13.7741 26.3673 13.3647C26.8137 12.8438 27.3719 12.2719 28.0415 11.6487C28.7111 11.0258 29.5157 10.3565 30.4548 9.63971C31.3942 8.92366 32.4219 8.3284 33.5384 7.85413C34.654 7.37976 35.6962 7.14277 36.6634 7.14277C37.6306 7.14277 38.5416 7.21714 39.3975 7.36569C40.2533 7.51433 41.1275 7.80282 42.0205 8.23058C42.9135 8.65862 43.6714 9.21196 44.2944 9.89077C44.9175 10.5697 45.4292 11.4861 45.8292 12.6393C46.2285 13.7923 46.4284 15.1224 46.4284 16.6289C46.4282 19.7539 44.6801 23.0652 41.1829 26.5618Z" fill="black"/>
</svg>
