<svg width="32" height="33" viewBox="0 0 32 33" fill="none" xmlns="http://www.w3.org/2000/svg">
<path d="M9.77535 22.4646C11.7973 22.4646 20.0954 22.4646 20.0954 22.4646M20.0954 22.4646H22.1654M20.0954 22.4646V12.1146H25.0004C25.0726 12.1146 25.1439 12.1302 25.2095 12.1604C25.2751 12.1906 25.3334 12.2347 25.3804 12.2896L28.5304 16.0646C28.6049 16.1545 28.6456 16.2677 28.6454 16.3846V22.4646H26.5004M20.0954 22.4646C20.0954 22.4646 20.0757 10.8272 20 7.99949C20 7.99949 6.7835 7.85884 3.63324 7.93245C3.55757 10.7585 3.5 22.4995 3.5 22.4995C3.5 22.4995 5.02508 22.4546 5.64035 22.4546" stroke="#2C2B2A" stroke-width="2"/>
<path d="M7.76492 25.3652C8.99099 25.3652 9.98492 24.3579 9.98492 23.1152C9.98492 21.8726 8.99099 20.8652 7.76492 20.8652C6.53885 20.8652 5.54492 21.8726 5.54492 23.1152C5.54492 24.3579 6.53885 25.3652 7.76492 25.3652Z" stroke="#2C2B2A" stroke-width="2"/>
<path d="M24.2903 25.3652C25.5164 25.3652 26.5103 24.3579 26.5103 23.1152C26.5103 21.8726 25.5164 20.8652 24.2903 20.8652C23.0642 20.8652 22.0703 21.8726 22.0703 23.1152C22.0703 24.3579 23.0642 25.3652 24.2903 25.3652Z" stroke="#2C2B2A" stroke-width="2"/>
</svg>
