<svg width="40" height="40" viewBox="0 0 40 40" fill="none" xmlns="http://www.w3.org/2000/svg">
<path d="M31.8316 21.3308V26.2871C31.8325 26.5133 31.7886 26.7375 31.7026 26.9467C31.6166 27.156 31.4901 27.3462 31.3304 27.5065C31.1708 27.6667 30.981 27.7939 30.7721 27.8807C30.5631 27.9674 30.3391 28.0121 30.1129 28.0121H7.55664C7.08745 28.0121 6.63721 27.827 6.30369 27.497C5.97017 27.167 5.78033 26.7188 5.77539 26.2496L5.77539 10.1245C5.77539 10.1245 6.29447 10.1212 6.90664 10.1246H18.1879" stroke="#2C2B2A" stroke-width="2"/>
<path d="M17.8934 11.8751H36.6496M17.8934 14.7749H36.6496M32.1184 31.7941H5.92462C5.58623 31.7949 5.25102 31.7289 4.93823 31.5998C4.62545 31.4707 4.34125 31.281 4.10198 31.0417C3.8627 30.8025 3.67306 30.5183 3.54395 30.2055C3.41483 29.8927 3.34879 29.5575 3.34962 29.2191V28.0129H34.3746V29.5129C34.3747 30.1136 34.1377 30.6901 33.7153 31.1172C33.2929 31.5443 32.719 31.7875 32.1184 31.7941ZM19.7746 8.20661H36.6496C36.6496 8.20661 36.6496 8.81561 36.6496 9.54411V21.1254C36.6496 21.1254 36.0406 21.1254 35.3121 21.1254H17.8934C17.8934 21.1254 17.8934 20.5163 17.8934 19.7879V8.20648C17.8934 8.20648 18.7664 8.20325 19.7746 8.20661Z" stroke="#2C2B2A" stroke-width="2"/>
</svg>
