<svg width="50" height="50" viewBox="0 0 50 50" fill="none" xmlns="http://www.w3.org/2000/svg">
<path d="M24.9999 0C15.0151 0 6.89185 8.12324 6.89185 18.108C6.89185 30.4994 23.0968 48.6907 23.7868 49.4591C24.4348 50.1809 25.5663 50.1796 26.2131 49.4591C26.9031 48.6907 43.1081 30.4994 43.1081 18.108C43.1079 8.12324 34.9847 0 24.9999 0ZM24.9999 27.2187C19.9763 27.2187 15.8894 23.1316 15.8894 18.108C15.8894 13.0844 19.9764 8.99746 24.9999 8.99746C30.0235 8.99746 34.1104 13.0845 34.1104 18.1081C34.1104 23.1317 30.0235 27.2187 24.9999 27.2187Z" fill="black"/>
</svg>
