<svg width="33" height="33" viewBox="0 0 33 33" fill="none" xmlns="http://www.w3.org/2000/svg">
<path d="M27.3949 17.0498C27.4084 17.0182 27.4153 16.9842 27.4153 16.9498C27.4153 16.9155 27.4084 16.8815 27.3949 16.8498C26.9149 15.9448 23.1449 9.08484 16.4999 8.91984C9.85489 8.75484 5.99989 15.8048 5.45989 16.8248C5.43882 16.8613 5.42773 16.9027 5.42773 16.9448C5.42773 16.987 5.43882 17.0284 5.45989 17.0648C6.04989 18.0298 10.1749 24.5248 15.3399 24.9998C21.0349 25.4998 25.6549 21.4998 27.3949 17.0498Z" stroke="#131E29" stroke-width="2"/>
<path d="M16.3495 20.3348C18.2577 20.3348 19.8045 18.7879 19.8045 16.8798C19.8045 14.9717 18.2577 13.4248 16.3495 13.4248C14.4414 13.4248 12.8945 14.9717 12.8945 16.8798C12.8945 18.7879 14.4414 20.3348 16.3495 20.3348Z" stroke="#131E29" stroke-width="2"/>
</svg>
