<svg width="20" height="20" fill="none" xmlns="http://www.w3.org/2000/svg"><g clip-path="url(#a)"><path d="M16.6 16.601h-2.777v-4.35c0-1.038-.019-2.374-1.445-2.374-1.447 0-1.668 1.13-1.668 2.298V16.6H7.93V7.654h2.667v1.223h.038a2.923 2.923 0 0 1 2.631-1.446c2.816 0 3.335 1.852 3.335 4.262l-.001 4.908ZM4.798 6.431a1.612 1.612 0 1 1-.001-3.225 1.612 1.612 0 0 1 0 3.225ZM6.186 16.6H3.405V7.654h2.78V16.6ZM17.986.626H2.009A1.368 1.368 0 0 0 .625 1.978v16.044a1.37 1.37 0 0 0 1.384 1.353h15.977a1.372 1.372 0 0 0 1.389-1.353V1.977a1.371 1.371 0 0 0-1.39-1.352v.001Z" fill="#F5F1E8" fill-opacity=".64"/></g><defs><clipPath id="a"><path fill="#fff" d="M0 0h20v20H0z"/></clipPath></defs></svg>