<svg width="50" height="50" viewBox="0 0 50 50" fill="none" xmlns="http://www.w3.org/2000/svg">
<g clip-path="url(#clip0_1514_35)">
<path d="M17.3075 23.0771H10.5767C9.77537 23.0771 9.09411 22.7967 8.53316 22.2358C7.97252 21.6748 7.69183 20.9938 7.69183 20.1922V19.2311C7.69183 17.1076 8.44317 15.2948 9.94576 13.7923C11.4482 12.2902 13.2613 11.5389 15.3846 11.5389H17.3075C17.8283 11.5389 18.2788 11.3485 18.6596 10.968C19.0402 10.5873 19.2305 10.1368 19.2305 9.61593V5.76944C19.2305 5.24869 19.0401 4.79771 18.6596 4.41704C18.279 4.0369 17.8284 3.84619 17.3075 3.84619H15.3846C13.3011 3.84619 11.3133 4.25223 9.42006 5.06314C7.52702 5.87458 5.88962 6.97144 4.50722 8.35383C3.12493 9.7356 2.02839 11.3731 1.21705 13.2664C0.405719 15.1594 0 17.1477 0 19.231V40.3843C0 41.9877 0.56064 43.3492 1.68245 44.4714C2.80436 45.593 4.16686 46.1537 5.76932 46.1537H17.3083C18.9106 46.1537 20.2727 45.593 21.3947 44.4714C22.5163 43.3492 23.0773 41.9877 23.0773 40.3843V28.8464C23.0773 27.2433 22.5163 25.8819 21.394 24.7595C20.2725 23.638 18.9099 23.0771 17.3075 23.0771ZM48.3183 24.7595C47.1968 23.638 45.8346 23.0771 44.2318 23.0771H37.5011C36.7002 23.0771 36.0183 22.7967 35.4583 22.2358C34.8971 21.6748 34.617 20.9938 34.617 20.1922V19.2311C34.617 17.1076 35.3683 15.2948 36.8702 13.7923C38.3721 12.2902 40.1851 11.5389 42.3094 11.5389H44.2319C44.7528 11.5389 45.2037 11.3485 45.5841 10.968C45.9644 10.5873 46.1554 10.1368 46.1554 9.61593V5.76944C46.1554 5.24869 45.9645 4.79771 45.5841 4.41704C45.2038 4.0369 44.7529 3.84619 44.2319 3.84619H42.3094C40.2247 3.84619 38.2374 4.25223 36.3436 5.06314C34.4509 5.87458 32.814 6.97144 31.4316 8.35383C30.0492 9.7356 28.9522 11.3731 28.1411 13.2664C27.33 15.1594 26.9238 17.1477 26.9238 19.231V40.3843C26.9238 41.9877 27.4849 43.3492 28.6064 44.4714C29.728 45.593 31.0902 46.1537 32.6929 46.1537H44.2312C45.834 46.1537 47.1961 45.593 48.3176 44.4714C49.4399 43.3492 49.9999 41.9877 49.9999 40.3843V28.8464C50 27.2432 49.4399 25.8819 48.3183 24.7595Z" fill="black"/>
</g>
<defs>
<clipPath id="clip0_1514_35">
<rect width="50" height="50" fill="white"/>
</clipPath>
</defs>
</svg>
