<svg width="24" height="24" viewBox="0 0 24 24" fill="none" xmlns="http://www.w3.org/2000/svg">
<path d="M21.0569 20.2164H2.94443C2.90048 20.2167 2.85725 20.2053 2.81917 20.1833C2.7811 20.1614 2.74956 20.1297 2.72779 20.0915C2.70602 20.0533 2.69482 20.01 2.69533 19.9661C2.69584 19.9221 2.70804 19.8791 2.73068 19.8414L11.7869 3.90394C11.8079 3.86561 11.8389 3.83364 11.8765 3.81137C11.9141 3.7891 11.957 3.77734 12.0007 3.77734C12.0444 3.77734 12.0873 3.7891 12.1249 3.81137C12.1625 3.83364 12.1934 3.86561 12.2144 3.90394L21.2707 19.8414C21.2933 19.8791 21.3055 19.9221 21.306 19.9661C21.3065 20.01 21.2953 20.0533 21.2736 20.0915C21.2518 20.1297 21.2203 20.1614 21.1822 20.1833C21.1441 20.2053 21.1009 20.2167 21.0569 20.2164Z" stroke="#EB5757" stroke-width="2"/>
<path d="M12 17.5391V17.7903M12 9.00781V15.5441" stroke="#EB5757" stroke-width="2" stroke-linecap="round"/>
</svg>
