<svg width="30" height="30" viewBox="0 0 30 30" fill="none" xmlns="http://www.w3.org/2000/svg">
<g clip-path="url(#clip0_707_458999)">
<rect width="30" height="30" rx="4" fill="#ED1C24"/>
<path fill-rule="evenodd" clip-rule="evenodd" d="M20.5896 10.9946C20.6457 10.9769 20.7196 11.0124 20.7934 11.1099C20.7934 11.1099 20.7934 11.1099 24.1306 14.3786C24.3255 14.5736 24.3255 14.8691 24.1306 15.014C24.1306 15.014 24.1306 15.014 20.7934 18.3329C20.7196 18.4304 20.6457 18.454 20.5896 18.4245C20.5335 18.3949 20.498 18.3092 20.498 18.1851V11.2074C20.498 11.0862 20.5335 11.0124 20.5896 10.9946Z" fill="white"/>
<path fill-rule="evenodd" clip-rule="evenodd" d="M14.8816 5.54785H15.1178L15.3452 5.64242C15.3452 5.64242 15.3452 5.64242 18.7799 9.05888C18.9275 9.25388 18.8773 9.40166 18.6322 9.40166C18.6322 9.40166 18.6322 9.40166 17.2087 9.40166C16.9636 9.40166 16.7687 9.59672 16.7687 9.842C16.7687 9.842 16.7687 9.842 16.7687 12.3777C16.7687 12.6231 16.5709 12.8181 16.2755 12.8181C16.2755 12.8181 16.2755 12.8181 13.7741 12.8181C13.529 12.8181 13.3311 12.6231 13.3311 12.3777C13.3311 12.3777 13.3311 12.3777 13.3311 9.842C13.3311 9.59672 13.1362 9.40166 12.8881 9.40166H11.3672C11.1221 9.40166 11.0719 9.25388 11.2195 9.05888C11.2195 9.05888 11.2195 9.05888 14.6571 5.64242L14.8816 5.54785Z" fill="white"/>
<path fill-rule="evenodd" clip-rule="evenodd" d="M9.50139 10.9201C9.56337 10.9497 9.60177 11.0354 9.60177 11.1595V18.282C9.60177 18.4061 9.56337 18.48 9.50139 18.5036C9.44229 18.5273 9.35667 18.5036 9.25623 18.4298C9.25623 18.4298 9.25623 18.4298 5.86884 15.0133C5.67393 14.8685 5.67393 14.573 5.86884 14.3779C5.86884 14.3779 5.86884 14.3779 9.25623 11.0117C9.35667 10.9142 9.44229 10.8905 9.50139 10.9201Z" fill="white"/>
<path fill-rule="evenodd" clip-rule="evenodd" d="M13.7748 16.5273C13.7748 16.5273 13.7748 16.5273 16.2762 16.5273C16.5716 16.5273 16.7694 16.7224 16.7694 16.9677C16.7694 16.9677 16.7694 16.9677 16.7694 19.6512C16.7694 19.9438 16.9644 20.1389 17.2095 20.1389H18.5355C18.7806 20.1389 18.8781 20.2836 18.6831 20.4314C18.6831 20.4314 18.6831 20.4314 15.3459 23.7976C15.2456 23.8951 15.1245 23.9454 15.0005 23.9454C14.8793 23.9454 14.7553 23.8951 14.6579 23.7976C14.6579 23.7976 14.6579 23.7976 11.3207 20.4314C11.1228 20.2836 11.2203 20.1389 11.4654 20.1389C11.4654 20.1389 11.4654 20.1389 12.8888 20.1389C13.1369 20.1389 13.3319 19.9438 13.3319 19.6512C13.3319 19.6512 13.3319 19.6512 13.3319 16.9677C13.3319 16.7224 13.5297 16.5273 13.7748 16.5273Z" fill="white"/>
</g>
<defs>
<clipPath id="clip0_707_458999">
<rect width="30" height="30" fill="white"/>
</clipPath>
</defs>
</svg>
