<svg width="16" height="16" fill="none" xmlns="http://www.w3.org/2000/svg"><g clip-path="url(#a)"><path d="M0 8.667V3.333c0-1.102.897-2 2-2h12c1.103 0 2 .898 2 2v5.334h-2V7.333c0-1.102-.897-2-2-2H9.333c-.514 0-.978.201-1.333.52-.355-.32-.82-.52-1.333-.52H4c-1.103 0-2 .898-2 2v1.334H0Zm9.333-2a.666.666 0 0 0-.666.666v1.334h4V7.333A.667.667 0 0 0 12 6.667H9.333ZM0 10v4.667h1.333v-2h13.334v2H16V10H0Zm4-3.333a.668.668 0 0 0-.667.666v1.334h4V7.333a.667.667 0 0 0-.666-.666H4Z" fill="#AD893C"/></g><defs><clipPath id="a"><path fill="#fff" d="M0 0h16v16H0z"/></clipPath></defs></svg>