<svg width="16" height="16" fill="none" xmlns="http://www.w3.org/2000/svg"><g clip-path="url(#a)"><path d="M8 11.333a3.335 3.335 0 0 1 0-6.666 3.335 3.335 0 0 1 0 6.666Zm0-6a2.666 2.666 0 1 0 0 5.334 2.666 2.666 0 1 0 0-5.334ZM8.333 0h-.666v3.333h.666V0Zm0 12.667h-.666V16h.666v-3.333Zm-5-5H0v.666h3.333v-.666Zm12.667 0h-3.333v.666H16v-.666ZM13.893 2.58l-.473-.473-2.36 2.36.473.473 2.36-2.36Zm-8.96 8.953-.473-.473-2.36 2.36.473.473 2.36-2.36Zm0-7.073L2.58 2.107l-.473.473 2.36 2.36.473-.473-.007-.007Zm8.96 8.96-2.36-2.36-.473.473 2.36 2.36.473-.473Z" fill="#fff" stroke="#fff" stroke-width=".4"/></g><defs><clipPath id="a"><path fill="#fff" d="M0 0h16v16H0z"/></clipPath></defs></svg>