<svg width="30" height="30" viewBox="0 0 30 30" fill="none" xmlns="http://www.w3.org/2000/svg">
<g clip-path="url(#clip0_707_459006)">
<rect width="30" height="30" rx="4" fill="#FABC26"/>
<path d="M22.3471 17.0556C22.3466 17.0555 15.1181 15.4821 15.1181 15.4821C12.9635 15.0132 11.6119 12.953 12.0994 10.8806C12.5871 8.80817 14.729 7.50847 16.8836 7.9773C19.0383 8.44629 20.3897 10.5064 19.9023 12.5787C19.658 13.6163 18.999 14.4594 18.1315 14.9846C18.1313 14.9846 18.1292 14.9864 18.1284 14.9868C18.1029 15.0044 18.0864 15.0331 18.0864 15.0653C18.0864 15.1105 18.1188 15.1485 18.1627 15.1586C18.1628 15.1588 21.3783 15.8582 21.3789 15.8582C21.4554 15.8748 21.5349 15.8464 21.5819 15.7867C21.5821 15.7862 21.582 15.7866 21.582 15.7866C22.4679 14.6591 23 13.2524 23 11.7308C23 8.14746 20.0893 5.21908 16.4179 5.01109C16.3852 5.00935 16.1862 5.00188 16.119 5.00095C14.4935 4.97641 12.8454 5.42471 11.4121 6.39011C7.79273 8.82762 6.91336 13.6255 9.44737 17.1065L15.8786 25.9407C15.9061 25.9767 15.9503 26 15.9999 26C16.05 26 16.0943 25.9763 16.1216 25.94C16.1216 25.94 22.437 17.2776 22.4375 17.2768C22.4536 17.2539 22.4632 17.226 22.4632 17.1961C22.4632 17.1276 22.4137 17.0702 22.3471 17.0556Z" fill="white"/>
</g>
<defs>
<clipPath id="clip0_707_459006">
<rect width="30" height="30" fill="white"/>
</clipPath>
</defs>
</svg>
