<svg width="412" height="240" viewBox="0 0 412 240" fill="none" xmlns="http://www.w3.org/2000/svg">
<mask id="mask0_1504_4" style="mask-type:alpha" maskUnits="userSpaceOnUse" x="0" y="0" width="412" height="240">
<rect width="412" height="240" fill="#D9D9D9"/>
</mask>
<g mask="url(#mask0_1504_4)">
<path d="M131.25 146.25V172.734H8.32031L6.67969 152.227L77.8125 39.375H104.648L75.5859 88.0078L40.1953 146.25H131.25ZM111.914 39.375V210H78.1641V39.375H111.914ZM264.375 109.688V139.219C264.375 152.031 263.008 163.086 260.273 172.383C257.539 181.602 253.594 189.18 248.438 195.117C243.359 200.977 237.305 205.312 230.273 208.125C223.242 210.938 215.43 212.344 206.836 212.344C199.961 212.344 193.555 211.484 187.617 209.766C181.68 207.969 176.328 205.195 171.562 201.445C166.875 197.695 162.812 192.969 159.375 187.266C156.016 181.484 153.438 174.609 151.641 166.641C149.844 158.672 148.945 149.531 148.945 139.219V109.688C148.945 96.875 150.312 85.8984 153.047 76.7578C155.859 67.5391 159.805 60 164.883 54.1406C170.039 48.2812 176.133 43.9844 183.164 41.25C190.195 38.4375 198.008 37.0312 206.602 37.0312C213.477 37.0312 219.844 37.9297 225.703 39.7266C231.641 41.4453 236.992 44.1406 241.758 47.8125C246.523 51.4844 250.586 56.2109 253.945 61.9922C257.305 67.6953 259.883 74.5312 261.68 82.5C263.477 90.3906 264.375 99.4531 264.375 109.688ZM230.508 143.672V105.117C230.508 98.9453 230.156 93.5547 229.453 88.9453C228.828 84.3359 227.852 80.4297 226.523 77.2266C225.195 73.9453 223.555 71.2891 221.602 69.2578C219.648 67.2266 217.422 65.7422 214.922 64.8047C212.422 63.8672 209.648 63.3984 206.602 63.3984C202.773 63.3984 199.375 64.1406 196.406 65.625C193.516 67.1094 191.055 69.4922 189.023 72.7734C186.992 75.9766 185.43 80.2734 184.336 85.6641C183.32 90.9766 182.812 97.4609 182.812 105.117V143.672C182.812 149.844 183.125 155.273 183.75 159.961C184.453 164.648 185.469 168.672 186.797 172.031C188.203 175.312 189.844 178.008 191.719 180.117C193.672 182.148 195.898 183.633 198.398 184.57C200.977 185.508 203.789 185.977 206.836 185.977C210.586 185.977 213.906 185.234 216.797 183.75C219.766 182.188 222.266 179.766 224.297 176.484C226.406 173.125 227.969 168.75 228.984 163.359C230 157.969 230.508 151.406 230.508 143.672ZM406.875 146.25V172.734H283.945L282.305 152.227L353.438 39.375H380.273L351.211 88.0078L315.82 146.25H406.875ZM387.539 39.375V210H353.789V39.375H387.539Z" fill="black"/>
</g>
</svg>
