<svg width="216" height="24" viewBox="0 0 216 24" fill="none" xmlns="http://www.w3.org/2000/svg">
<path d="M210.713 19.2412C207.072 19.2412 204.888 16.433 204.888 12.6887C204.888 8.50233 207.28 5.53809 210.739 5.53809C213.755 5.53809 215.341 8.19031 215.029 11.0245H206.474C206.448 11.3366 206.448 11.6746 206.448 12.0126C206.448 15.4449 208.268 17.9411 211.467 17.9411C212.949 17.9411 214.301 16.875 214.769 15.2629L215.107 15.3409C214.717 17.6811 212.949 19.2412 210.713 19.2412ZM206.526 10.4785H213.547C213.677 8.0863 212.351 6.26615 210.323 6.26615C208.138 6.26615 206.864 7.82628 206.526 10.4785Z" fill="#F3EDE9"/>
<path d="M199.279 19.2412C195.638 19.2412 193.454 16.433 193.454 12.6887C193.454 8.50233 195.846 5.53809 199.305 5.53809C202.321 5.53809 203.907 8.19031 203.595 11.0245H195.04C195.014 11.3366 195.014 11.6746 195.014 12.0126C195.014 15.4449 196.834 17.9411 200.033 17.9411C201.515 17.9411 202.867 16.875 203.335 15.2629L203.673 15.3409C203.283 17.6811 201.515 19.2412 199.279 19.2412ZM195.092 10.4785H202.113C202.243 8.0863 200.917 6.26615 198.889 6.26615C196.704 6.26615 195.43 7.82628 195.092 10.4785Z" fill="#F3EDE9"/>
<path d="M188.095 19.2412C185.651 19.2412 184.455 17.2651 184.429 19.2672H184.065L183.415 15.1329H183.779C184.533 17.3431 186.327 18.5132 188.069 18.5132C189.838 18.5132 191.086 17.4991 191.086 15.991C191.086 12.1946 183.571 13.4427 183.571 8.97037C183.571 6.8902 185.209 5.53809 187.445 5.53809C189.864 5.53809 190.982 7.48825 190.982 5.53809H191.346L191.944 9.36041H191.58C190.826 7.41024 189.37 6.26615 187.497 6.26615C185.963 6.26615 184.819 7.20222 184.819 8.55434C184.819 12.0386 192.334 10.6345 192.334 15.4969C192.334 17.6551 190.696 19.2412 188.095 19.2412Z" fill="#F3EDE9"/>
<path d="M180.755 16.849C180.755 17.9411 181.249 18.3572 182.705 18.5132V18.8772H177.401V18.5132C178.857 18.3572 179.351 17.9411 179.351 16.849V9.93245C179.351 7.82628 178.389 6.68218 176.621 6.68218C175.139 6.68218 173.865 7.64426 172.512 9.2564V16.849C172.512 17.9411 173.007 18.3572 174.463 18.5132V18.8772H169.158V18.5132C170.588 18.3572 171.082 17.9411 171.082 16.849V8.34632C171.082 6.8902 170.614 6.68218 169.158 6.99421V6.63018L172.148 5.53809H172.512V8.63234C173.969 6.60417 175.477 5.53809 177.037 5.53809C179.377 5.53809 180.755 7.20222 180.755 9.88045V16.849Z" fill="#F3EDE9"/>
<path d="M163.53 19.2412C159.89 19.2412 157.706 16.433 157.706 12.6887C157.706 8.50233 160.098 5.53809 163.556 5.53809C166.572 5.53809 168.158 8.19031 167.846 11.0245H159.292C159.266 11.3366 159.266 11.6746 159.266 12.0126C159.266 15.4449 161.086 17.9411 164.284 17.9411C165.766 17.9411 167.118 16.875 167.586 15.2629L167.924 15.3409C167.534 17.6811 165.766 19.2412 163.53 19.2412ZM159.344 10.4785H166.364C166.494 8.0863 165.168 6.26615 163.14 6.26615C160.956 6.26615 159.682 7.82628 159.344 10.4785Z" fill="#F3EDE9"/>
<path d="M158.189 5.92849V6.65656H154.601V16.9534C154.601 18.1235 155.563 18.3575 157.279 18.5135V18.8776H151.22V18.5135C152.183 18.3575 153.171 18.1235 153.171 16.9534V6.65656H150.96V5.92849H153.171V4.55038C153.171 1.56013 154.783 0 157.175 0C158.345 0 160.009 0.416034 160.009 1.53413C160.009 2.05417 159.515 2.4182 159.047 2.28819C157.981 2.13218 158.423 0.728061 156.785 0.728061C155.381 0.728061 154.601 1.89816 154.601 3.92633V5.92849H158.189Z" fill="#F3EDE9"/>
<path d="M144.496 5.53809C147.799 5.53809 149.905 8.24231 149.905 12.1166C149.905 16.407 147.539 19.2672 144.028 19.2672C142.546 19.2672 141.142 18.6172 140.388 17.6551V22.0755C140.388 23.2456 141.35 23.4796 143.066 23.6356V23.9996H137.008V23.6356C137.97 23.4796 138.958 23.2456 138.958 22.0755V8.34632C138.958 6.8902 138.464 6.68218 137.034 6.99421V6.63018L140.024 5.53809H140.388V8.86636C140.856 6.8902 142.468 5.53809 144.496 5.53809ZM140.388 14.4828C140.388 16.407 141.662 18.5392 144.314 18.5392C146.733 18.5392 148.345 16.329 148.345 13.1567C148.345 9.23039 146.577 6.47416 143.846 6.47416C142.156 6.47416 140.804 7.93029 140.388 9.69843V14.4828Z" fill="#F3EDE9"/>
<path d="M130.342 19.2672C126.962 19.2672 124.673 16.615 124.673 12.6887C124.673 8.42433 127.092 5.53809 130.628 5.53809C134.008 5.53809 136.322 8.19031 136.322 12.1166C136.322 16.407 133.904 19.2672 130.342 19.2672ZM126.233 11.3886C126.233 15.2889 128.184 18.5392 130.888 18.5392C133.124 18.5392 134.762 16.381 134.762 13.4427C134.762 9.51642 132.812 6.26615 130.082 6.26615C127.82 6.26615 126.233 8.42433 126.233 11.3886Z" fill="#F3EDE9"/>
<path d="M124.219 0.831804C122.425 0.987817 121.827 1.45586 121.827 2.75596V16.5891C121.827 17.8892 122.425 18.3573 124.219 18.5133V18.8773H117.822V18.5133C119.617 18.3573 120.215 17.8892 120.215 16.5891V9.77655H110.464V16.5891C110.464 17.8892 111.062 18.3573 112.856 18.5133V18.8773H106.459V18.5133C108.254 18.3573 108.852 17.8892 108.852 16.5891V2.75596C108.852 1.45586 108.254 0.987817 106.459 0.831804V0.467773H112.856V0.831804C111.062 0.987817 110.464 1.45586 110.464 2.75596V9.04849H120.215V2.75596C120.215 1.45586 119.617 0.987817 117.822 0.831804V0.467773H124.219V0.831804Z" fill="#F3EDE9"/>
<path d="M105.393 11.623V12.2991H98.8921V11.623H105.393Z" fill="#F3EDE9"/>
<path d="M95.8763 16.849C95.8763 17.9411 96.3703 18.3572 97.8264 18.5132V18.8772H92.522V18.5132C93.9781 18.3572 94.4721 17.9411 94.4721 16.849V9.82844C94.4721 7.90428 93.302 6.65618 91.4819 6.65618C90.0778 6.65618 89.0637 7.56625 87.7636 9.07438C87.7896 9.3084 87.7896 9.54242 87.7896 9.80244V16.849C87.7896 17.9411 88.2836 18.3572 89.7397 18.5132V18.8772H84.4353V18.5132C85.8914 18.3572 86.3595 17.9411 86.3595 16.849V9.82844C86.3595 7.90428 85.2154 6.65618 83.3952 6.65618C81.9911 6.65618 81.003 7.56625 79.7029 9.04838V16.849C79.7029 17.9411 80.1969 18.3572 81.6531 18.5132V18.8772H76.3486V18.5132C77.7788 18.3572 78.2728 17.9411 78.2728 16.849V8.34632C78.2728 6.8902 77.8048 6.68218 76.3486 6.99421V6.63018L79.3389 5.53809H79.7029V8.42433C81.237 6.34415 82.5892 5.53809 84.0973 5.53809C86.0214 5.53809 87.3215 6.65618 87.6856 8.58034C89.2717 6.39616 90.6498 5.53809 92.1839 5.53809C94.5241 5.53809 95.8763 7.17622 95.8763 9.80244V16.849Z" fill="#F3EDE9"/>
<path d="M68.313 19.2672C66.3889 19.2672 64.8027 17.8891 64.8027 15.887C64.8027 13.2607 66.3889 11.8306 69.9252 11.4666L72.3694 11.2586V10.1665C72.3694 7.77427 71.0953 6.26615 69.0931 6.26615C66.8569 6.26615 66.1288 7.74827 66.3889 8.91837C66.5709 9.72443 66.3629 10.1665 65.9208 10.2965C65.4528 10.4525 64.8027 10.2445 64.8027 9.2824C64.8287 7.80027 66.1808 5.53809 69.6131 5.53809C72.1613 5.53809 73.7995 7.30623 73.7995 10.1925V17.3171C73.7995 17.9411 74.1115 18.2791 74.5796 18.2791C74.9176 18.2791 75.2556 18.0451 75.5676 17.4731L75.9057 17.6031C75.2816 18.9292 74.5015 19.2672 74.0335 19.2672C73.1234 19.2672 72.3694 18.5912 72.3694 17.3691V15.8349C71.5893 18.0191 70.1332 19.2672 68.313 19.2672ZM66.3629 15.4449C66.3629 16.979 67.559 18.0711 68.9891 18.0711C70.3932 18.0711 71.5893 16.953 72.3694 15.1849V11.9346L70.0292 12.2206C67.507 12.5327 66.3629 13.5728 66.3629 15.4449Z" fill="#F3EDE9"/>
<path d="M62.9146 11.623V12.2991H56.4141V11.623H62.9146Z" fill="#F3EDE9"/>
<path d="M53.1209 16.8495C53.1209 17.9416 53.6149 18.3577 55.071 18.5137V18.8777H49.7666V18.5137C51.1967 18.3577 51.6908 17.9416 51.6908 16.8495V2.88636C51.6908 1.45624 51.2227 1.22222 49.7666 1.53425V1.17022L52.7569 0.078125H53.1209V16.8495Z" fill="#F3EDE9"/>
<path d="M44.138 19.2412C40.4977 19.2412 38.3135 16.433 38.3135 12.6887C38.3135 8.50233 40.7057 5.53809 44.164 5.53809C47.1802 5.53809 48.7664 8.19031 48.4543 11.0245H39.8996C39.8736 11.3366 39.8736 11.6746 39.8736 12.0126C39.8736 15.4449 41.6938 17.9411 44.892 17.9411C46.3742 17.9411 47.7263 16.875 48.1943 15.2629L48.5323 15.3409C48.1423 17.6811 46.3742 19.2412 44.138 19.2412ZM39.9516 10.4785H46.9722C47.1022 8.0863 45.7761 6.26615 43.7479 6.26615C41.5638 6.26615 40.2896 7.82628 39.9516 10.4785Z" fill="#F3EDE9"/>
<path d="M37.9588 17.551C37.8288 18.045 36.9448 19.2671 35.5926 19.2671C33.7205 19.2671 32.6284 17.993 32.6284 15.6788V6.65607H30.4702V6.29204C32.3684 5.95401 33.3305 4.86192 33.6945 2.67773H34.0585V5.92801H37.8548V6.65607H34.0585V15.6528C34.0585 17.317 34.8386 18.357 36.2427 18.331C37.0748 18.331 37.4648 17.785 37.7508 17.447L37.9588 17.551Z" fill="#F3EDE9"/>
<path d="M23.8819 19.2672C20.5016 19.2672 18.2134 16.615 18.2134 12.6887C18.2134 8.42433 20.6316 5.53809 24.1679 5.53809C27.5482 5.53809 29.8624 8.19031 29.8624 12.1166C29.8624 16.407 27.4442 19.2672 23.8819 19.2672ZM19.7735 11.3886C19.7735 15.2889 21.7237 18.5392 24.4279 18.5392C26.6641 18.5392 28.3022 16.381 28.3022 13.4427C28.3022 9.51642 26.3521 6.26615 23.6218 6.26615C21.3596 6.26615 19.7735 8.42433 19.7735 11.3886Z" fill="#F3EDE9"/>
<path d="M17.7595 0.831804C15.9653 0.987817 15.3673 1.45586 15.3673 2.75596V16.5891C15.3673 17.8892 15.9653 18.3573 17.7595 18.5133V18.8773H11.3629V18.5133C13.1571 18.3573 13.7551 17.8892 13.7551 16.5891V9.77655H4.00433V16.5891C4.00433 17.8892 4.60238 18.3573 6.39653 18.5133V18.8773H0V18.5133C1.79415 18.3573 2.3922 17.8892 2.3922 16.5891V2.75596C2.3922 1.45586 1.79415 0.987817 0 0.831804V0.467773H6.39653V0.831804C4.60238 0.987817 4.00433 1.45586 4.00433 2.75596V9.04849H13.7551V2.75596C13.7551 1.45586 13.1571 0.987817 11.3629 0.831804V0.467773H17.7595V0.831804Z" fill="#F3EDE9"/>
</svg>
