<svg width="180" height="20" viewBox="0 0 180 20" fill="none" xmlns="http://www.w3.org/2000/svg">
<path d="M175.593 16.0347C172.56 16.0347 170.74 13.6945 170.74 10.5742C170.74 7.08559 172.733 4.61539 175.615 4.61539C178.129 4.61539 179.45 6.82557 179.19 9.18744H172.062C172.04 9.44746 172.04 9.72915 172.04 10.0108C172.04 12.8711 173.557 14.9513 176.222 14.9513C177.457 14.9513 178.584 14.0628 178.974 12.7194L179.255 12.7844C178.93 14.7346 177.457 16.0347 175.593 16.0347ZM172.105 8.7324H177.955C178.064 6.7389 176.959 5.2221 175.268 5.2221C173.448 5.2221 172.387 6.52221 172.105 8.7324Z" fill="#F3EDE9"/>
<path d="M166.066 16.0347C163.032 16.0347 161.212 13.6945 161.212 10.5742C161.212 7.08559 163.205 4.61539 166.087 4.61539C168.601 4.61539 169.923 6.82557 169.663 9.18744H162.534C162.512 9.44746 162.512 9.72915 162.512 10.0108C162.512 12.8711 164.029 14.9513 166.694 14.9513C167.929 14.9513 169.056 14.0628 169.446 12.7194L169.728 12.7844C169.403 14.7346 167.929 16.0347 166.066 16.0347ZM162.577 8.7324H168.428C168.536 6.7389 167.431 5.2221 165.741 5.2221C163.92 5.2221 162.859 6.52221 162.577 8.7324Z" fill="#F3EDE9"/>
<path d="M156.746 16.0347C154.709 16.0347 153.712 14.3879 153.691 16.0563H153.387L152.846 12.6111H153.149C153.777 14.4529 155.273 15.428 156.724 15.428C158.198 15.428 159.238 14.5829 159.238 13.3261C159.238 10.1625 152.976 11.2026 152.976 7.47563C152.976 5.74215 154.341 4.61539 156.204 4.61539C158.219 4.61539 159.151 6.24052 159.151 4.61539H159.455L159.953 7.80065H159.65C159.021 6.17552 157.808 5.2221 156.248 5.2221C154.969 5.2221 154.016 6.00217 154.016 7.12893C154.016 10.0325 160.278 8.86241 160.278 12.9144C160.278 14.7129 158.913 16.0347 156.746 16.0347Z" fill="#F3EDE9"/>
<path d="M150.629 14.0412C150.629 14.9513 151.041 15.2979 152.255 15.428V15.7313H147.834V15.428C149.048 15.2979 149.459 14.9513 149.459 14.0412V8.27736C149.459 6.52221 148.658 5.5688 147.184 5.5688C145.949 5.5688 144.887 6.37053 143.761 7.71398V14.0412C143.761 14.9513 144.172 15.2979 145.386 15.428V15.7313H140.965V15.428C142.157 15.2979 142.569 14.9513 142.569 14.0412V6.95558C142.569 5.74215 142.179 5.5688 140.965 5.82882V5.52546L143.457 4.61539H143.761V7.19394C144.974 5.50379 146.231 4.61539 147.531 4.61539C149.481 4.61539 150.629 6.00217 150.629 8.23402V14.0412Z" fill="#F3EDE9"/>
<path d="M136.275 16.0347C133.241 16.0347 131.421 13.6945 131.421 10.5742C131.421 7.08559 133.414 4.61539 136.296 4.61539C138.81 4.61539 140.132 6.82557 139.872 9.18744H132.743C132.721 9.44746 132.721 9.72915 132.721 10.0108C132.721 12.8711 134.238 14.9513 136.903 14.9513C138.138 14.9513 139.265 14.0628 139.655 12.7194L139.937 12.7844C139.612 14.7346 138.138 16.0347 136.275 16.0347ZM132.786 8.7324H138.636C138.745 6.7389 137.64 5.2221 135.95 5.2221C134.129 5.2221 133.068 6.52221 132.786 8.7324Z" fill="#F3EDE9"/>
<path d="M131.824 4.94042V5.54714H128.834V14.1279C128.834 15.1029 129.636 15.298 131.066 15.428V15.7313H126.017V15.428C126.819 15.298 127.642 15.1029 127.642 14.1279V5.54714H125.8V4.94042H127.642V3.79199C127.642 1.30012 128.986 7.62939e-06 130.979 7.62939e-06C131.954 7.62939e-06 133.341 0.346703 133.341 1.27845C133.341 1.71182 132.929 2.01518 132.539 1.90683C131.651 1.77682 132.019 0.606725 130.654 0.606725C129.484 0.606725 128.834 1.58181 128.834 3.27195V4.94042H131.824Z" fill="#F3EDE9"/>
<path d="M120.414 4.61539C123.166 4.61539 124.921 6.86891 124.921 10.0975C124.921 13.6728 122.949 16.0563 120.024 16.0563C118.789 16.0563 117.619 15.5146 116.99 14.7129V18.3965C116.99 19.3716 117.792 19.5666 119.222 19.6966V20H114.173V19.6966C114.975 19.5666 115.798 19.3716 115.798 18.3965V6.95558C115.798 5.74215 115.387 5.5688 114.195 5.82882V5.52546L116.687 4.61539H116.99V7.38895C117.38 5.74215 118.724 4.61539 120.414 4.61539ZM116.99 12.0693C116.99 13.6728 118.052 15.4496 120.262 15.4496C122.277 15.4496 123.621 13.6078 123.621 10.9643C123.621 7.69231 122.147 5.39545 119.872 5.39545C118.464 5.39545 117.337 6.60889 116.99 8.08234V12.0693Z" fill="#F3EDE9"/>
<path d="M108.618 16.0563C105.801 16.0563 103.895 13.8462 103.895 10.5742C103.895 7.02059 105.91 4.61539 108.857 4.61539C111.674 4.61539 113.602 6.82557 113.602 10.0975C113.602 13.6728 111.587 16.0563 108.618 16.0563ZM105.195 9.49079C105.195 12.7411 106.82 15.4496 109.073 15.4496C110.937 15.4496 112.302 13.6511 112.302 11.2026C112.302 7.93066 110.677 5.2221 108.402 5.2221C106.516 5.2221 105.195 7.02059 105.195 9.49079Z" fill="#F3EDE9"/>
<path d="M103.516 0.693396C102.021 0.823407 101.522 1.21344 101.522 2.29686V13.8245C101.522 14.9079 102.021 15.298 103.516 15.428V15.7313H98.1854V15.428C99.6806 15.298 100.179 14.9079 100.179 13.8245V8.14735H92.0533V13.8245C92.0533 14.9079 92.5516 15.298 94.0468 15.428V15.7313H88.7163V15.428C90.2114 15.298 90.7098 14.9079 90.7098 13.8245V2.29686C90.7098 1.21344 90.2114 0.823407 88.7163 0.693396V0.390038H94.0468V0.693396C92.5516 0.823407 92.0533 1.21344 92.0533 2.29686V7.54064H100.179V2.29686C100.179 1.21344 99.6806 0.823407 98.1854 0.693396V0.390038H103.516V0.693396Z" fill="#F3EDE9"/>
<path d="M87.8273 9.68582V10.2492H82.4102V9.68582H87.8273Z" fill="#F3EDE9"/>
<path d="M79.897 14.0412C79.897 14.9513 80.3087 15.2979 81.5222 15.428V15.7313H77.1018V15.428C78.3152 15.2979 78.7269 14.9513 78.7269 14.0412V8.19069C78.7269 6.58722 77.7519 5.54713 76.2351 5.54713C75.065 5.54713 74.2199 6.30553 73.1365 7.5623C73.1581 7.75732 73.1581 7.95233 73.1581 8.16902V14.0412C73.1581 14.9513 73.5699 15.2979 74.7833 15.428V15.7313H70.3629V15.428C71.5764 15.2979 71.9664 14.9513 71.9664 14.0412V8.19069C71.9664 6.58722 71.013 5.54713 69.4962 5.54713C68.3261 5.54713 67.5027 6.30553 66.4193 7.54063V14.0412C66.4193 14.9513 66.831 15.2979 68.0444 15.428V15.7313H63.624V15.428C64.8158 15.2979 65.2275 14.9513 65.2275 14.0412V6.95558C65.2275 5.74215 64.8375 5.5688 63.624 5.82882V5.52546L66.1159 4.61539H66.4193V7.02059C67.6977 5.28711 68.8245 4.61539 70.0812 4.61539C71.6847 4.61539 72.7681 5.54713 73.0715 7.1506C74.3933 5.33045 75.5417 4.61539 76.8201 4.61539C78.7703 4.61539 79.897 5.9805 79.897 8.16902V14.0412Z" fill="#F3EDE9"/>
<path d="M56.9277 16.0563C55.3242 16.0563 54.0024 14.9079 54.0024 13.2394C54.0024 11.0509 55.3242 9.85916 58.2711 9.5558L60.308 9.38245V8.47238C60.308 6.47888 59.2462 5.2221 57.5777 5.2221C55.7143 5.2221 55.1075 6.45721 55.3242 7.43229C55.4759 8.10401 55.3026 8.47238 54.9342 8.58072C54.5442 8.71073 54.0024 8.53738 54.0024 7.73565C54.0241 6.50054 55.1509 4.61539 58.0111 4.61539C60.1346 4.61539 61.4997 6.08884 61.4997 8.49404V14.4312C61.4997 14.9513 61.7598 15.2329 62.1498 15.2329C62.4315 15.2329 62.7132 15.0379 62.9732 14.5612L63.2549 14.6696C62.7348 15.7747 62.0848 16.0563 61.6947 16.0563C60.9364 16.0563 60.308 15.493 60.308 14.4745V13.1961C59.6579 15.0163 58.4445 16.0563 56.9277 16.0563ZM55.3025 12.8711C55.3025 14.1495 56.2993 15.0596 57.4911 15.0596C58.6612 15.0596 59.6579 14.1278 60.308 12.6544V9.94583L58.3578 10.1842C56.256 10.4442 55.3025 11.3109 55.3025 12.8711Z" fill="#F3EDE9"/>
<path d="M52.4288 9.68582V10.2492H47.0117V9.68582H52.4288Z" fill="#F3EDE9"/>
<path d="M44.2674 14.0412C44.2674 14.9513 44.6791 15.298 45.8925 15.428V15.7313H41.4722V15.428C42.6639 15.298 43.0756 14.9513 43.0756 14.0412V2.40521C43.0756 1.21344 42.6856 1.01842 41.4722 1.27844V0.975086L43.964 0.0650101H44.2674V14.0412Z" fill="#F3EDE9"/>
<path d="M36.7815 16.0347C33.7479 16.0347 31.9277 13.6945 31.9277 10.5742C31.9277 7.08559 33.9212 4.61539 36.8031 4.61539C39.3167 4.61539 40.6385 6.82557 40.3784 9.18744H33.2495C33.2278 9.44746 33.2278 9.72915 33.2278 10.0108C33.2278 12.8711 34.7446 14.9513 37.4099 14.9513C38.645 14.9513 39.7717 14.0628 40.1618 12.7194L40.4434 12.7844C40.1184 14.7346 38.645 16.0347 36.7815 16.0347ZM33.2929 8.7324H39.1433C39.2517 6.7389 38.1466 5.2221 36.4564 5.2221C34.6363 5.2221 33.5745 6.52221 33.2929 8.7324Z" fill="#F3EDE9"/>
<path d="M31.6326 14.6262C31.5243 15.0379 30.7875 16.0563 29.6608 16.0563C28.1006 16.0563 27.1906 14.9946 27.1906 13.0661V5.54713H25.3921V5.24378C26.9739 4.96209 27.7756 4.05201 28.079 2.23186H28.3823V4.94042H31.5459V5.54713H28.3823V13.0444C28.3823 14.4312 29.0324 15.2979 30.2025 15.2763C30.8959 15.2763 31.2209 14.8212 31.4593 14.5396L31.6326 14.6262Z" fill="#F3EDE9"/>
<path d="M19.9019 16.0563C17.085 16.0563 15.1782 13.8462 15.1782 10.5742C15.1782 7.02059 17.1934 4.61539 20.1403 4.61539C22.9572 4.61539 24.8857 6.82557 24.8857 10.0975C24.8857 13.6728 22.8705 16.0563 19.9019 16.0563ZM16.4783 9.49079C16.4783 12.7411 18.1035 15.4496 20.357 15.4496C22.2205 15.4496 23.5856 13.6511 23.5856 11.2026C23.5856 7.93066 21.9605 5.2221 19.6853 5.2221C17.8001 5.2221 16.4783 7.02059 16.4783 9.49079Z" fill="#F3EDE9"/>
<path d="M14.7996 0.693396C13.3044 0.823407 12.8061 1.21344 12.8061 2.29686V13.8245C12.8061 14.9079 13.3044 15.298 14.7996 15.428V15.7313H9.46912V15.428C10.9642 15.298 11.4626 14.9079 11.4626 13.8245V8.14735H3.33695V13.8245C3.33695 14.9079 3.83532 15.298 5.33045 15.428V15.7313H0V15.428C1.49512 15.298 1.9935 14.9079 1.9935 13.8245V2.29686C1.9935 1.21344 1.49512 0.823407 0 0.693396V0.390038H5.33045V0.693396C3.83532 0.823407 3.33695 1.21344 3.33695 2.29686V7.54064H11.4626V2.29686C11.4626 1.21344 10.9642 0.823407 9.46912 0.693396V0.390038H14.7996V0.693396Z" fill="#F3EDE9"/>
</svg>
