<svg width="229" height="16" fill="none" xmlns="http://www.w3.org/2000/svg"><g clip-path="url(#a)" fill="#1E2227"><path d="M5.832 6.773c2.6.534 3.791 1.628 3.791 3.596 0 1.969-1.555 3.791-4.447 3.791-3.062 0-4.593-1.628-5.176-3.84l2.308-1.117c.413 1.628 1.216 2.55 2.868 2.55 1.069 0 1.75-.535 1.75-1.215 0-.924-.875-1.41-2.65-1.75C1.895 8.326.558 7.16.558 5.238c0-2.066 1.677-3.4 4.253-3.4 2.333 0 3.766 1.02 4.592 3.086L7.363 6.14c-.414-1.24-1.264-2.066-2.6-2.066-.997 0-1.726.438-1.726 1.118 0 .656.68 1.142 2.795 1.58m12.83-4.641h8.627v2.382h-5.88V6.65h5.418v2.333h-5.419v2.55h5.93v2.406h-8.676V2.131Zm38.324 0h8.627v2.382h-5.905V6.65h5.42v2.333h-5.42v2.55h5.954v2.406h-8.676V2.131Zm17.787 0h2.722l4.325 6.707s.413.68.51.924v-7.63h2.674v11.81h-2.722l-4.325-6.756s-.413-.68-.51-.923v7.679h-2.674V2.132ZM112.1 6.773c2.6.534 3.791 1.628 3.791 3.596 0 1.969-1.556 3.791-4.447 3.791-3.062 0-4.593-1.628-5.176-3.84l2.308-1.117c.413 1.628 1.215 2.55 2.868 2.55 1.069 0 1.75-.535 1.75-1.215 0-.924-.875-1.41-2.65-1.75-2.382-.462-3.718-1.628-3.718-3.55 0-2.066 1.7-3.4 4.252-3.4 2.333 0 3.767 1.02 4.593 3.086l-2.041 1.215c-.413-1.24-1.264-2.066-2.6-2.066-.997 0-1.75.438-1.75 1.118.024.656.704 1.142 2.819 1.58m22.867 2.505c0 3.013-2.114 4.884-5.054 4.884-2.941 0-5.055-1.87-5.055-4.884V2.13h2.722v6.83c0 1.847.996 2.697 2.333 2.697 1.336 0 2.333-.85 2.333-2.697V2.13h2.721v7.145Zm9.552-7.145h2.721l4.326 6.707s.413.68.51.924v-7.63h2.673v11.81h-2.722l-4.325-6.756s-.413-.68-.511-.923v7.679h-2.672V2.132Zm27.629 5.905c0-2.187-1.361-3.45-3.596-3.45h-1.337v6.877h1.337c2.235 0 3.596-1.24 3.596-3.427Zm-7.655-5.905h3.816c3.766 0 6.585 1.896 6.585 5.905 0 4.01-2.819 5.905-6.585 5.905h-3.816V2.131Zm22.675 6.634h2.406l-.705-1.92s-.267-.68-.486-1.41a28.27 28.27 0 0 1-.486 1.41l-.729 1.92Zm-.098-6.634h2.576l4.813 11.81h-2.965l-1.069-2.842h-4.131l-1.069 2.843h-2.966l4.811-11.81Zm19.659 11.811h-2.722V9.446l-3.961-7.315h3.062l1.895 3.767s.195.461.34.875c.146-.413.341-.875.341-.875l1.895-3.767h3.062l-3.912 7.315v4.496Zm16.915-7.169c2.6.534 3.791 1.628 3.791 3.596 0 1.969-1.555 3.791-4.447 3.791-3.062 0-4.593-1.628-5.176-3.84l2.308-1.117c.413 1.628 1.215 2.55 2.868 2.55 1.069 0 1.75-.535 1.75-1.215 0-.924-.875-1.41-2.65-1.75-2.382-.462-3.718-1.628-3.718-3.55 0-2.066 1.7-3.4 4.252-3.4 2.333 0 3.767 1.02 4.593 3.086l-2.041 1.215c-.413-1.24-1.264-2.066-2.6-2.066-.997 0-1.75.438-1.75 1.118.024.656.68 1.142 2.819 1.58M32.295 2.228h3.84l8.553 8.165v-8.14h2.77v11.81h-2.624L32.294 2.228Z"/></g><defs><clipPath id="a"><path fill="#fff" transform="translate(0 1.84)" d="M0 0h227.434v12.32H0z"/></clipPath></defs></svg>