<svg width="48" height="48" fill="none" xmlns="http://www.w3.org/2000/svg"><g clip-path="url(#a)" fill="#AD893C"><path fill-rule="evenodd" clip-rule="evenodd" d="M24 46s18-12 18-26a18 18 0 1 0-36 0c0 14 18 26 18 26Zm8-26a8 8 0 1 1-16 0 8 8 0 0 1 16 0Z"/><path d="m24 46-.832 1.248.832.555.832-.555L24 46ZM36.728 7.272l-1.06 1.06 1.06-1.06Zm-25.456 0 1.06 1.06-1.06-1.06ZM40.5 20c0 6.397-4.149 12.531-8.589 17.218a59.355 59.355 0 0 1-8.016 7.023 33.984 33.984 0 0 1-.686.483l-.033.023-.007.005h-.002L24 46l.833 1.248.001-.001.004-.003.012-.008.044-.03.162-.111c.14-.097.341-.238.596-.422a62.35 62.35 0 0 0 8.437-7.391C38.649 34.469 43.5 27.602 43.5 20h-3ZM35.667 8.333A16.5 16.5 0 0 1 40.5 20h3a19.5 19.5 0 0 0-5.711-13.789l-2.122 2.122ZM24 3.5a16.5 16.5 0 0 1 11.667 4.833L37.79 6.21A19.5 19.5 0 0 0 24 .5v3ZM12.333 8.333A16.5 16.5 0 0 1 24 3.5v-3a19.5 19.5 0 0 0-13.789 5.711l2.122 2.122ZM7.5 20a16.5 16.5 0 0 1 4.833-11.667L10.21 6.21A19.5 19.5 0 0 0 4.5 20h3ZM24 46l.832-1.248-.008-.005-.033-.023a33.984 33.984 0 0 1-.686-.483 59.355 59.355 0 0 1-8.016-7.023C11.649 32.531 7.5 26.398 7.5 20h-3c0 7.603 4.851 14.469 9.411 19.282a62.35 62.35 0 0 0 8.437 7.391 36.983 36.983 0 0 0 .758.533l.044.03.012.008.004.003h.001L24 46Zm0-16.5a9.5 9.5 0 0 0 9.5-9.5h-3a6.5 6.5 0 0 1-6.5 6.5v3ZM14.5 20a9.5 9.5 0 0 0 9.5 9.5v-3a6.5 6.5 0 0 1-6.5-6.5h-3Zm9.5-9.5a9.5 9.5 0 0 0-9.5 9.5h3a6.5 6.5 0 0 1 6.5-6.5v-3Zm9.5 9.5a9.5 9.5 0 0 0-9.5-9.5v3a6.5 6.5 0 0 1 6.5 6.5h3Z"/></g><defs><clipPath id="a"><path fill="#fff" d="M0 0h48v48H0z"/></clipPath></defs></svg>