<svg width="136" height="16" fill="none" xmlns="http://www.w3.org/2000/svg"><path d="m93.734.315 1.412 8.812L96.8.324l2.324.01 1.747 8.79 1.256-8.809h2.197l-2.532 14.924-2.645.021-1.572-7.865-1.895 7.85-2.645.009L90.675.315h3.06Zm-81.262 0 1.411 8.812L15.628.305l2.24.025 1.74 8.795 1.257-8.81h2.196l-2.517 14.939-2.657.006c-.381-2.148-.798-4.338-1.332-6.45-.11-.44-.15-1.176-.55-1.415l-1.577 7.859-2.57.017L9.413.315h3.059ZM58.044 0v4.563c1.16-.977 3.319-1.196 4.11.362.15.294.44 1.482.44 1.761v8.574h-2.98V6.844c0-.79-1.042-1.2-1.568-.473v8.89h-2.98V.627L58.046 0h-.002Zm64.948 0v4.563c1.168-.803 3.34-1.107 4.146.326.069.122.404 1.106.404 1.169v9.204h-2.98V6.686c0-.639-1.168-.994-1.568-.315v8.89h-2.98V.865l2.98-.866h-.002Zm-16.356 3.97c4.988-.933 5.306 3.372 5.069 7.128-.182 2.884-1.156 4.625-4.326 4.484-2.574-.116-3.367-2.058-3.533-4.328-.171-2.342-.211-6.724 2.79-7.286v.003Zm.936 2.031c-.153.036-.423.311-.497.458-.366.76-.387 5.875-.004 6.594.111.21.513.465.756.444.182-.047.373-.141.49-.288.572-.702.532-5.835.126-6.722-.134-.293-.545-.564-.871-.486ZM70.907 15.26h-2.51c-.044 0-.107-.698-.392-.784-1.489 1.833-4.351 1.286-4.627-1.183-.375-3.363.674-5.022 4.236-4.641-.103-.961.431-2.416-.82-2.735-1.532-.391-1.036.986-1.4 1.925l-1.548.021V4.795c2.013-1.472 6.239-1.56 6.59 1.572.197 1.742-.098 3.865-.006 5.67.052 1.027.197 2.24.477 3.219v.004Zm-3.293-5.034c-1.638-.416-1.88 1.608-1.372 2.711.362.787 1.372.341 1.372.043v-2.754Zm67.77.473h-4.079c-.433 3 2.295 3.212 4.077 1.574l-.075 2.203c-2.492 1.806-6.119 1.453-6.81-1.982-.373-1.854-.446-6.394.997-7.78 1.2-1.151 4.033-1.1 5.105.244.214.267.785 1.455.785 1.73v4.013-.002Zm-2.51-1.732v-2.28c0-1.047-1.569-1.033-1.569-.158v2.438h1.569ZM72.007 5.978h-.942v-1.89h.942C71.777.717 74.22-.418 77.162.65l.02 1.866c-1.51-.385-2.518-.24-2.355 1.574h2.042v1.888c-.132.132-1.64-.248-1.882.235v9.047h-2.98V5.978Zm15.531 1.574-.159-1.727c-.95-.173-2.081.264-1.606 1.372.446 1.038 2.858 1.635 3.608 3.309 1.824 4.077-3.175 6.093-6.234 4.128v-3.147l1.547.021.432 1.875c.714.128 1.935-.143 1.93-1.032-.004-1.185-3.025-2.2-3.735-3.794-1.74-3.9 3.06-6.001 5.945-3.916v2.911h-1.728Zm-41.103 0-1.552-.016-.433-1.722c-1.196-.191-2.006.818-1.154 1.82.852 1.003 2.47 1.11 3.252 2.718 1.958 4.034-3.01 6.462-6.073 4.202v-3.069h1.566l.185 1.625c.193.578 2.448.433 1.945-1.16-.406-1.287-3.505-1.777-3.84-4.177-.536-3.842 3.365-4.872 6.104-3.132v2.911Zm7.687-2.989v3.62l-1.548-.021-.425-2.043c-2.048-.877-1.727 3.487-1.641 4.664.224 3.01 1.658 3.132 3.769 1.33l-.08 2.201c-1.765 1.707-5.182 1.602-6.158-.9-.597-1.53-.595-5.815-.042-7.365.978-2.743 3.903-2.539 6.123-1.488l.002.002Zm64.948 3.62-1.548-.021-.358-2.001c-1.417-.63-1.61.67-1.7 1.786-.239 2.95-.136 7.614 3.763 4.167v2.28c-1.757 1.535-5.038 1.55-6.148-.757-.781-1.622-.773-6.173-.048-7.817 1.061-2.41 3.993-2.188 6.039-1.259v3.622ZM6.902 8.338H0v6.922h6.902V8.338Zm0-8.023H0v6.766h6.902V.315Zm26.983 8.023-1.547-.02-.35-1.695c-.322-.227-1.242.292-1.242.536v8.103h-2.98c-.146-3.71.334-7.512-.313-11.17h2.51l.394 1.102c.722-1.089 2.402-1.738 3.528-.864v4.013-.005Zm46.592-6.45V4.09h1.726v1.798l-1.728.09v6.844l.316.313c.8.38 1.598-.53 1.724-.39l-.025 1.782c-1.996 1.55-4.756 1.179-5.001-1.7-.172-2.004-.197-6.059-.004-8.04.037-.383.025-.388.237-.71.127-.193 1.608-1.49 1.895-1.717.236-.187.546-.472.858-.477l.002.005Zm-42.827 0V4.09h1.726v1.798l-1.728.09v6.844l.316.313c.8.38 1.598-.53 1.724-.39l-.025 1.782c-1.983 1.585-4.745 1.158-5.003-1.699-.176-1.973-.192-6.079-.002-8.04.036-.355.008-.405.235-.708.175-.238 1.415-1.289 1.74-1.558.27-.222.67-.58 1.015-.632l.002-.002ZM26.67 4.09h-3.138v11.17h3.137V4.09Zm0-3.775h-3.138v2.518h3.137V.315Z" fill="#1E2227" fill-opacity=".64"/></svg>