<svg width="84" height="16" fill="none" xmlns="http://www.w3.org/2000/svg"><path d="M6.311.001v.39C5.674.246 4.54.831 4.54 1.514v5.51h6.597v-5.51c0-.865-1.071-1.14-1.771-1.125V0h6.298v.39c-1.386.001-1.784.497-1.875 1.802.272 3.555-.353 7.616.017 11.111.124 1.166.659 1.604 1.86 1.524v.39H9.362v-.39c.546.049 1.34-.053 1.6-.61.028-.062.173-.578.173-.609V7.903H4.539v5.9c0 .08.308.69.4.775.354.329.927.246 1.372.25v.39h-6.3l.095-.344c1.49-.004 1.687-.63 1.78-1.944.245-3.533-.183-7.353-.016-10.917C1.74.794 1.273.366.01.391-.03.283.054.001.159.001H6.31Zm95.593 1.171v3.61h2.412c.097 0 .798-.265.94-.337 1.153-.582 1.951-2.064 2.273-3.258l.478-.014v3.61h2.461v.78h-2.461l-.003 7.074c.04 1.116.776 1.886 1.866 1.16.37-.245.561-.93.899-.562-.465 2.383-4.638 3.338-5.08.526a18.125 18.125 0 0 1-.148-1.61c-.103-2.12.069-4.27.062-6.39 0-.114-.006-.125-.108-.199h-3.593v7.462c0 .101.208.575.293.686.277.36.773.425 1.189.295.306-.095.827-.955 1.078-.638.25.317-1.015 1.548-1.35 1.736-1.093.614-2.908.561-3.425-.761-.738-1.895.023-6.21-.242-8.44-.017-.143-.011-.252-.152-.337h-1.428l.016-.472c1.838-.612 2.92-2.159 3.543-3.901l.477-.016.003-.004ZM47.265.001v12.534c0 .033.093.163.102.29.072.997-.202 2.133 1.277 2.1v.292h-3.397c-.356 0-.335-1.075-.394-1.074-1.1.714-1.68 1.462-3.122 1.438-6.084-.11-4.773-12.727 1.896-10.951.44.117.817.548 1.276.637v-2.78c0-.028-.146-.449-.176-.508-.299-.583-.735-.403-1.301-.418l.006-.284C44.717.92 45.943.167 47.265 0Zm-5.047 5.292c-1.673.282-1.941 3.382-1.843 4.705.19 2.537 1.78 5.395 4.51 3.202-.182-2.03 1.067-8.539-2.665-7.907h-.002Zm33.104 1.244c1.364-2.038 3.907-2.932 5.712-.832 1.938 2.254 1.577 6.562-.64 8.54-2.169 1.935-5.064 1.498-7.419.176l-.027-11.727c-.108-.458-.18-1.043-.733-1.127-.381-.057-.739.178-.832-.297C72.711.937 73.973.182 75.322 0v6.537Zm1.254-.075c-.334.057-1.191.602-1.251.906v6.335c.434.728 1.575 1.151 2.404 1.02 2.88-.456 3.254-8.996-1.153-8.26Z" fill="#1E2227" fill-opacity=".64"/><path d="M29.643 4.488v2.244c1.277-1.354 2.474-2.628 4.534-2.102.391.1.898.507 1.131.83 1.093 1.518.506 5.526.632 7.47.062.962.142 2.067 1.383 1.996v.292h-5.021v-.29c.602-.054.981-.266 1.155-.857.257-.877.228-5.943 0-6.875-.493-2.02-3.147-.843-3.813.466.151 1.917-.215 4.159.01 6.035.086.727.486 1.252 1.269 1.23v.292h-4.825v-.291c.636.048.98-.466 1.075-1.034-.165-2.191.251-4.773.01-6.916-.094-.823-.555-1.2-1.379-.926l-.097-.245c1.252-.515 2.608-1.1 3.936-1.316v-.003Zm65.024 10.73c-.496-.089-.4-1.197-.491-1.56-1.344 1.805-4.682 3.048-5.68.261-1.23-3.442 3.422-4.505 5.713-5.545.012-.902.22-2.584-.765-3.063-.985-.479-2.479-.076-2.56 1.19-.016.264.09.447.085.66-.046 1.843-2.965 1.388-2.107-.722.76-1.867 3.887-2.113 5.6-1.843 1.593.25 2.115 1.267 2.23 2.765.148 1.966-.197 4.193.008 6.137.09.857.383 1.486 1.366 1.427v.292c-1.01-.127-2.442.17-3.397 0l-.002.001Zm-.442-6.146c-1.309.713-3.588 1.229-3.552 3.075.042 2.08 2.445 2.157 3.552.778V9.072ZM22.21 15.218c-.066-.014-.167-.112-.244-.149-.253-.421-.198-.94-.2-1.412-1.295 1.035-1.946 2.024-3.792 1.858-1.619-.147-2.456-1.98-2.067-3.422.55-2.04 4.122-2.93 5.845-3.718-.004-.788.153-1.703-.223-2.428-.673-1.299-2.897-1.037-3.098.454-.097.716.265 1.775-.843 1.896-1.442.155-1.627-1.337-.937-2.295 1.056-1.465 3.711-1.661 5.355-1.405.7.11 1.466.509 1.802 1.14.898 1.682.208 5.881.435 7.957.073.663.293 1.26 1.071 1.232v.292c-.887-.128-2.282.173-3.102 0h-.001Zm-.443-6.146c-1.105.576-3.28 1.2-3.521 2.609-.407 2.386 2.161 2.808 3.52 1.245V9.072Zm36.032-.292h-6.695c-.197 3.979 3.967 6.98 6.449 2.732l.242.154c-.539 2.118-1.778 3.91-4.18 3.924-6.76.04-5.751-12.653 1.511-10.94 1.833.431 2.71 2.414 2.673 4.13ZM55.338 8c-.036-3.644-4.075-3.457-4.233 0h4.233Zm15.161 0-.388-.007c-.207-1.595-1.084-2.966-2.902-2.717-1.161.16-1.53 1.337-.746 2.186 1.177 1.275 4.472 2.182 4.8 4.12.501 2.96-2.105 4.305-4.726 3.903-.353-.054-.765-.256-1.113-.27-.425-.02-.63.218-1.029.197v-3.805h.293c.234 1.532 1.165 3.357 2.992 3.21 1.207-.096 2.086-1.44 1.288-2.426-.989-1.224-3.887-2.046-4.493-3.643-.867-2.287.884-4.278 3.218-4.269.588.003 1.508.4 1.973.386.275-.008.518-.339.833-.281V8ZM62.032.001v13.705c0 .603.714 1.367 1.38 1.22v.29h-5.12v-.29c1.155.062 1.305-.883 1.376-1.808.209-2.711.174-6.925.005-9.66-.027-.44-.11-1.421-.392-1.729-.422-.459-1.254.246-1.187-.46C59.43.964 60.68.167 62.032 0Zm24.316 0v13.705c0 .603.715 1.367 1.38 1.22v.29h-5.12v-.29c.99-.018 1.293-.625 1.377-1.514-.181-3.34.246-6.935.005-10.245-.075-1.036-.295-1.945-1.578-1.508.007-.076-.02-.18.003-.24.076-.195 3.425-1.432 3.935-1.418h-.002Z" fill="#1E2227" fill-opacity=".64"/></svg>