<svg width="102" height="14" viewBox="0 0 102 14" fill="none" xmlns="http://www.w3.org/2000/svg"><path fill-rule="evenodd" clip-rule="evenodd" d="M69.5847 0C68.178 3.05303e-08 66.8028 0.408339 65.6331 1.17339C64.4634 1.93843 63.5517 3.02583 63.0133 4.29807C62.4749 5.57032 62.3339 6.97029 62.6082 8.32095C62.8826 9.67161 63.5599 10.9123 64.5545 11.8862C65.5491 12.86 66.8164 13.5233 68.1961 13.7922C69.5758 14.061 71.006 13.9233 72.3057 13.3965C73.6055 12.8697 74.7165 11.9775 75.4983 10.8326C76.28 9.68772 76.6975 8.34163 76.6978 6.96453C76.6962 5.11815 75.9463 3.34782 74.6127 2.0421C73.2792 0.736372 71.4709 0.00194127 69.5847 0ZM69.5847 11.7488C68.6174 11.7488 67.6719 11.468 66.8677 10.9419C66.0634 10.4158 65.4366 9.66807 65.0665 8.79324C64.6964 7.91841 64.5997 6.95578 64.7885 6.02712C64.9773 5.09845 65.4432 4.24546 66.1273 3.57602C66.8114 2.90657 67.6829 2.45075 68.6316 2.2662C69.5803 2.08166 70.5636 2.17667 71.4572 2.53922C72.3508 2.90178 73.1144 3.51559 73.6516 4.30304C74.1888 5.09048 74.4753 6.01618 74.475 6.96306C74.4699 8.23102 73.953 9.4456 73.0369 10.3421C72.1209 11.2385 70.88 11.7442 69.5847 11.7488Z" fill="#232323"/><path fill-rule="evenodd" clip-rule="evenodd" d="M94.3956 2.53058V5.87502H100.358V8.06995H94.3956V11.3939H101.235V13.5712H92.1924V0.372314H101.235V2.53058H94.3956Z" fill="#232323"/><path fill-rule="evenodd" clip-rule="evenodd" d="M89.3798 0.354736V13.5888H87.2978L81.1299 4.57157V13.5888H78.8877V0.354736H80.8977L81.1494 0.681703L87.1376 9.30892V0.354736H89.3798Z" fill="#232323"/><path fill-rule="evenodd" clip-rule="evenodd" d="M61.3927 0.35498V2.54991H57.106V13.589H54.8638V2.54991H50.5771V0.35498H61.3927Z" fill="#232323"/><path fill-rule="evenodd" clip-rule="evenodd" d="M49.498 9.97031C49.4767 10.5502 49.3228 11.118 49.0475 11.6319C48.7722 12.1458 48.3825 12.5926 47.9073 12.9394C46.9817 13.608 45.7984 13.9335 44.5313 13.9335H44.5238C44.4235 13.9347 44.3233 13.9279 44.2242 13.913C42.8762 13.8646 41.6286 13.435 40.7089 12.5934C39.9327 11.8899 39.4383 10.9385 39.3145 9.91019V9.87354V9.04952H41.4922L41.5522 9.75771C41.6442 10.267 41.9028 10.7332 42.2891 11.0861C42.7624 11.504 43.4454 11.7532 44.3725 11.7869C45.2997 11.8207 46.0336 11.6154 46.5219 11.2679C46.7449 11.1189 46.9282 10.9197 47.0565 10.6871C47.1847 10.4544 47.2541 10.195 47.2588 9.93072V9.91899C47.2857 9.36329 47.0611 8.93369 46.4664 8.54661C45.9078 8.18152 45.1394 7.95133 44.4025 7.72993L44.2707 7.69034L43.8633 7.57598L43.5517 7.47774C42.8747 7.2754 41.9521 6.99242 41.1792 6.46752C40.1922 5.80918 39.6485 4.87814 39.6934 3.73302C39.7056 3.18039 39.8535 2.63875 40.1247 2.15387C40.3958 1.66899 40.7821 1.25511 41.2511 0.94721C42.1603 0.318203 43.4034 -0.0043642 44.696 0.0366898C46.7585 0.118798 48.469 1.14222 49.1894 2.87382L49.1969 2.89141L49.4276 3.57174L47.3097 4.14063L47.0985 3.65531C46.7316 2.81224 45.8329 2.22722 44.6197 2.19936C43.694 2.18176 43.0185 2.37384 42.5886 2.66708C42.3889 2.79416 42.2246 2.96793 42.1106 3.17271C41.9965 3.37749 41.9364 3.60684 41.9356 3.84006C41.9249 4.01229 41.9694 4.1835 42.0629 4.32977C42.2095 4.53038 42.4011 4.69541 42.6231 4.81216C43.1967 5.14206 44.0026 5.39864 44.7994 5.62737L45.0121 5.68309H45.0211L45.1049 5.70948C45.8778 5.94261 46.9293 6.26078 47.801 6.83554C48.9558 7.53785 49.5654 8.63312 49.498 9.97031Z" fill="#232323"/><path fill-rule="evenodd" clip-rule="evenodd" d="M30.7589 0.35474H26.3135V13.5888H30.7589C34.5034 13.5888 37.5664 10.6197 37.5664 6.98057C37.5581 5.2192 36.837 3.53285 35.561 2.29093C34.2851 1.04902 32.5583 0.352782 30.7589 0.35474ZM30.7589 11.4129H28.5362V2.53061H30.7589C31.9622 2.53061 33.1161 2.99851 33.967 3.83139C34.8178 4.66427 35.2958 5.7939 35.2958 6.97178C35.2958 8.14965 34.8178 9.27927 33.967 10.1122C33.1161 10.945 31.9622 11.4129 30.7589 11.4129Z" fill="#232323"/><path fill-rule="evenodd" clip-rule="evenodd" d="M16.8707 2.53034V5.87478H22.814V8.06971H16.8707V11.3936H23.6902V13.5709H14.6465V0.37207H23.6902V2.53034H16.8707Z" fill="#232323"/><path fill-rule="evenodd" clip-rule="evenodd" d="M12.3239 13.5727H9.68931L6.81354 8.95554H3.25926L1.93671 6.8002H7.41265C7.70022 6.8002 7.98497 6.74476 8.25065 6.63703C8.51632 6.5293 8.75772 6.37141 8.96106 6.17235C9.1644 5.9733 9.3257 5.73699 9.43575 5.47692C9.54579 5.21684 9.60243 4.9381 9.60243 4.65659C9.60243 4.37509 9.54579 4.09635 9.43575 3.83627C9.3257 3.5762 9.1644 3.33989 8.96106 3.14083C8.75772 2.94178 8.51632 2.78389 8.25065 2.67616C7.98497 2.56843 7.70022 2.51299 7.41265 2.51299H1.36455L0.0419922 0.376709H7.41265C8.40987 0.381262 9.37563 0.718827 10.1503 1.33359C10.9249 1.94835 11.462 2.8035 11.6728 3.75764C11.8836 4.71177 11.7555 5.70776 11.3096 6.58093C10.8636 7.45409 10.1267 8.15214 9.2205 8.55966L12.3239 13.5727Z" fill="#232323"/><path d="M0.449219 10.9326H3.14525V13.5718H0.449219V10.9326Z" fill="#E70000"/></svg>