<svg width="85" height="23" fill="none" xmlns="http://www.w3.org/2000/svg"><path d="m3.178 21.873 1.78-8.31c-1.013-.173-1.095.532-1.518 1.194l-.857-.008c-.097-.943.743-1.51 1.172-2.293.185-.34.145-.866.259-1.028.06-.087.602-.238.848-.437 1.023-.815-.277-1.501-.301-2.576C1.219 9.874.14 7.088 2.382 4.752c-.322-.508-.7-.053-1.229-.13-.669-.098-1.25-.611-1.14-1.35 1.172.45 3.472-.419 2.922 1.631-.19.71-2.25 2.444-.542 3.212 1.507.678 2.517-1.507 3.37-2.163.537-.413 1.452-.593 1.955-1.015 1.702-1.422 3.294-3.254 5.17-4.523 1.47-.993 3.1.006 4.48.84 2.228 1.348 2.67 2.65 3.848 4.857l2.147 1.71c-1.084.188-1.52-.68-2.374-.985-.05.045.711.996.806 1.073.37.304.992.315 1.172.704-.661.286-1.8-.487-2.245-.408-.156.027-.188.427-.455.575-.314.177-.787.132-1.107.286-.482.23-.796.818-1.42.73-.584-.349.016-1.111-.714-1.273l.595-1.687-1.78.59-.198-1.779c.072.834-.042 1.817-.991 1.981v.289c.563.574 1.274 1.186 1.187 2.081 1.21-.466-.695-2.097-.595-2.174.817-.013 1.39.689 1.393 1.47.008 1.49-.838.9-1.588 1.793 2.035.77 2.78 2.518 1.29 4.26l-1.687.98c2.665 1.036 1.922 4.015-.396 5.05-.186.083-1.407.493-1.486.493H3.178v.003Zm16.82-15.831c.098-1.263-1.621-2.49-1.38-.395.354.01.026-.633.666-.37.463.187.34.693.716.765h-.002Zm-8.111 4.947-.199-.79c1.248-.733 1.706 1.19 2.853.377 1.335-.946-.91-1.518-1.346-1.788-.494-.307-.351-.842-.914-.765l.008.895-3.443.699-.624-1.796c-.177 1.115.064 2.209-.692 3.168.793.15.788-.514 1.089-.99l.098.99h3.17Zm-3.168 4.353h3.464c1.353 0 1.501-1.583.79-1.583H8.918l-.199 1.583Zm-.988 3.76h4.254c.542 0 1.023-1.035.494-1.485-1.277-.548-2.715-.19-4.066-.307l-.312.127-.373 1.668.003-.002Zm61.939 2.771 2.563-10.797c.253-.177 2.617-.148 2.976.016.59.267 4.275 5.053 4.553 4.843l1.287-4.946h3.464L81.95 21.785l-2.779-.015-4.653-5.244-1.385 5.344H69.67v.003Z" fill="#F5F1E8" fill-opacity=".64"/><path d="m22.374 10.989-1.377 7.015c.119 1.806 3.39 1.729 4.19.05.918-1.925.815-5.119 1.838-7.068h3.86c-1.285 4.25-.82 10.635-6.62 11.09-3.604.281-7.715.017-7.21-4.636.109-.996 1.007-5.12 1.364-5.956.08-.183.093-.382.296-.495h3.662-.003Zm35.226 0-.582 2.685-5.94.095-.207 1.375h5.737l-.404 2.365-5.796.002-.528 1.592h6.334l-.692 2.77H45.33l2.374-10.884h9.895Zm8.904 0-.487 2.582-2.11.304-2.054 7.998h-3.86c.302-2.431 1.645-5.448 1.782-7.818.024-.413.003-.254-.293-.296-.516-.075-1.153.055-1.687 0l.592-2.77h8.117Zm-22.758 0-1.782 8.114h3.168l-.595 2.77h-7.32l2.67-10.884h3.86Zm-8.113 0-1.782 8.114h3.167l-.595 2.77h-7.32l2.572-10.884h3.958Zm35.817 0-2.572 10.884H64.92l2.374-10.884h4.156ZM52.056 7.628l.991 2.172-2.15-.027-.6-1.832c-1.591-.636-1.459.675-1.615 1.85l-1.97.009 1.206-5.52c1.454.123 4.296-.457 5.428.567 1.131 1.025 0 2.66-1.293 2.781h.003Zm-2.768-.993c3.135.447 3.743-1.327.206-.977l-.206.977Zm11.476 3.167 1.309-5.553c2.101-.042 6.255-.392 5.805 2.865-.158 1.147-1.945 2.688-3.058 2.688h-4.056Zm2.178-1.387c3.244.9 4.474-3.43.78-2.879l-.78 2.879ZM34.05 4.262l-.397 1.978 2.482-.19.299-1.78 1.97-.008-1.196 5.53-1.97.008.395-2.175-2.483.188-.473 1.902-1.795.085 1.216-5.514 1.951-.024Zm26.912 0-.209 1.173h-3.822l-.323 1.004h3.564l-.198 1.186h-3.76v.792h3.76l-.495 1.385h-5.642l1.486-5.54h5.64Zm-15.632 0-.383 1.1-3.646.113-.325.964h3.365l-.227 1.157-3.413.016-.318.805h3.76l-.198 1.385h-5.74l1.187-5.54h5.938Zm-14.051 0-.384 1.298-1.983.095-.914 4.158-1.864-.013.988-4.153-1.977-.002.198-1.383h5.936Z" fill="#F5F1E8" fill-opacity=".64"/></svg>